SplineFontDB: 3.0
FontName: Michroma
FullName: Michroma
FamilyName: Michroma
Weight: Book
Copyright: 
Version: 1.000
ItalicAngle: 0
UnderlinePosition: -103
UnderlineWidth: 102
Ascent: 1638
Descent: 410
sfntRevision: 0x00010000
LayerCount: 2
Layer: 0 0 "Back"  1
Layer: 1 0 "Fore"  0
NeedsXUIDChange: 1
XUID: [1021 823 301787212 7475719]
FSType: 0
OS2Version: 2
OS2_WeightWidthSlopeOnly: 0
OS2_UseTypoMetrics: 1
CreationTime: 1300382573
ModificationTime: 1315491081
PfmFamily: 81
TTFWeight: 400
TTFWidth: 5
LineGap: 0
VLineGap: 0
Panose: 0 0 0 0 0 0 0 0 0 0
OS2TypoAscent: 2368
OS2TypoAOffset: 0
OS2TypoDescent: -544
OS2TypoDOffset: 0
OS2TypoLinegap: 0
OS2WinAscent: 2368
OS2WinAOffset: 0
OS2WinDescent: 544
OS2WinDOffset: 0
HheadAscent: 2368
HheadAOffset: 0
HheadDescent: -544
HheadDOffset: 0
OS2SubXSize: 1434
OS2SubYSize: 1331
OS2SubXOff: 0
OS2SubYOff: 287
OS2SupXSize: 1434
OS2SupYSize: 1331
OS2SupXOff: 0
OS2SupYOff: 977
OS2StrikeYSize: 102
OS2StrikeYPos: 512
OS2Vendor: 'newt'
OS2CodePages: 20000111.40000000
OS2UnicodeRanges: 800000af.7800204b.14000000.00000000
Lookup: 258 0 0 "'kern' Horizontal Kerning in Latin lookup 0"  {"'kern' Horizontal Kerning in Latin lookup 0 per glyph data 0"  "'kern' Horizontal Kerning in Latin lookup 0 per glyph data 1"  "'kern' Horizontal Kerning in Latin lookup 0 kerning class 2"  } ['kern' ('latn' <'dflt' > ) ]
MarkAttachClasses: 1
DEI: 91125
KernClass2: 8+ 3 "'kern' Horizontal Kerning in Latin lookup 0 kerning class 2" 
 1 T
 1 Y
 3 m n
 1 K
 1 L
 1 P
 1 V
 7 b e o p
 13 a c d e g o q
 5 v w y
 0 {} -512 {} 0 {} 0 {} -512 {} 0 {} 0 {} 0 {} -64 {} 0 {} -128 {} 0 {} 0 {} -128 {} 0 {} 0 {} -64 {} 0 {} 0 {} -256 {} 0 {} 0 {} 0 {} -64 {}
TtTable: prep
PUSHW_1
 511
SCANCTRL
PUSHB_1
 1
SCANTYPE
SVTCA[y-axis]
MPPEM
PUSHB_1
 8
LT
IF
PUSHB_2
 1
 1
INSTCTRL
EIF
PUSHB_2
 70
 6
CALL
IF
POP
PUSHB_1
 16
EIF
MPPEM
PUSHB_1
 20
GT
IF
POP
PUSHB_1
 128
EIF
SCVTCI
PUSHB_1
 6
CALL
NOT
IF
SVTCA[y-axis]
PUSHB_1
 4
DUP
RCVT
PUSHB_1
 3
CALL
WCVTP
SVTCA[x-axis]
PUSHB_1

StartChar: exclam
Encoding: 23 33 8
Width: 448
GlyphClass: 2
Flags: HW
HStem: 0 192<128 320> 1516 20G<128 320>
VStem: 128 192<0 192 1211.05 1536> 176 96<448 772.949>
LayerCount: 2
Fore
SplineSet
128 1536 m 1
 320 1536 l 1
 272 448 l 1
 176 448 l 1
 128 1536 l 1
320 0 m 1
 128 0 l 1
 128 192 l 1
 320 192 l 1
 320 0 l 1
EndSplineSet
EndChar

StartChar: quotedbl
Encoding: 24 34 9
Width: 768
GlyphClass: 2
Flags: HW
HStem: 1152 384<160 288 480 608>
VStem: 160 128<1152 1324.03> 480 128<1152 1324.03>
LayerCount: 2
Fore
SplineSet
128 1536 m 1
 320 1536 l 1
 288 1152 l 1
 160 1152 l 1
 128 1536 l 1
448 1536 m 1
 640 1536 l 1
 608 1152 l 1
 480 1152 l 1
 448 1536 l 1
EndSplineSet
EndChar

StartChar: numbersign
Encoding: 25 35 10
Width: 1536
GlyphClass: 2
Flags: HW
HStem: 320 160<128 354 565 835 1046 1344> 864 160<192 489 700 970 1181 1408>
DStem2: 255 -80 415 -128 0.240769 0.970582<0 412.069 618.165 972.57 1178.67 1590.98> 736 -80 896 -128 0.240769 0.970582<0 412.069 618.165 972.57 1178.67 1590.98>
LayerCount: 2
Fore
SplineSet
835 320 m 1
 526 320 l 1
 415 -128 l 1
 255 -80 l 1
 354 320 l 1
 128 320 l 1
 128 480 l 1
 393 480 l 1
 489 864 l 1
 192 864 l 1
 192 1024 l 1
 528 1024 l 1
 640 1472 l 1
 800 1424 l 1
 700 1024 l 1
 1009 1024 l 1
 1121 1472 l 1
 1281 1424 l 1
 1181 1024 l 1
 1408 1024 l 1
 1408 864 l 1
 1142 864 l 1
 1046 480 l 1
 1344 480 l 1
 1344 320 l 1
 1007 320 l 1
 896 -128 l 1
 736 -80 l 1
 835 320 l 1
565 480 m 1
 874 480 l 1
 970 864 l 1
 661 864 l 1
 565 480 l 1
EndSplineSet
EndChar

StartChar: dollar
Encoding: 26 36 11
Width: 2018
GlyphClass: 2
Flags: HW
HStem: -36 164<420.282 913 1105 1490.75> 704 160<444.285 913 1105 1543.98> 1152 21G<1664 1856> 1408 160<486.498 913 1105 1564.72>
VStem: 128 192<216.582 384 960.18 1287.28> 913 192<-128 -36 128 704 864 1408 1568 1664> 1664 192<257.456 606.082 1152 1320.37>
LayerCount: 2
Fore
SplineSet
1856 424 m 256
 1856 19.3410270292 1513.06803714 -33.2612883414 1105 -36 c 1
 1105 -128 l 1
 913 -128 l 1
 913 -36 l 1
 832 -36 l 2
 440.987537552 -36 129 -5.31376741551 129 384 c 1
 321 384 l 1
 321 109.764649169 552.96795829 128 832 128 c 2
 913 128 l 1
 913 704 l 1
 896 704 l 2
 478.953932148 704 128 715.125422555 128 1128 c 0
 128 1534.49084179 505.357722314 1562.45384656 913 1568 c 1
 913 1664 l 1
 1105 1664 l 1
 1105 1568 l 1
 1152 1568 l 2
 1542.12370213 1568 1856 1540.51572794 1856 1152 c 1
 1664 1152 l 1
 1664 1426.51483438 1431.28284081 1408 1152 1408 c 2
 1105 1408 l 1
 1105 864 l 1
 1160 864 l 2
 1568.56977344 864 1856 830.300342928 1856 424 c 256
320 1128 m 0
 320 841.767144058 607.250553189 864 896 864 c 2
 913 864 l 1
 913 1408 l 1
 620.037641362 1404.36071604 320 1410.96925703 320 1128 c 0
1664 424 m 256
 1664 703.175572174 1448.29702278 704 1160 704 c 2
 1105 704 l 1
 1105 128 l 1
 1396.12387978 129.854292228 1664 142.768322765 1664 424 c 256
EndSplineSet
EndChar

StartChar: ampersand
Encoding: 28 38 13
Width: 2432
GlyphClass: 2
Flags: HW
HStem: 0 192<450.914 1628.34> 1408 160<576.606 1521.1>
VStem: 128 192<301.867 704.533> 320 192<1105.31 1325.77> 1600 192<1120 1334.89> 1760 192<448.592 768>
LayerCount: 2
Fore
SplineSet
1088 192 m 0
 1447.42440292 192 1760 148.832510266 1760 512 c 2
 1760 768 l 1
 1952 768 l 1
 1952 704 l 2
 1952 70.0016469074 1731.30228435 0 1088 0 c 0
 542.323918531 0 128 -39.2602982623 128 512 c 0
 128 748.99200082 255.827243991 960 480 960 c 1
 396.125782566 1015.91614496 320 1078.07530064 320 1216 c 0
 320 1576.99359564 665.289101598 1568 1024 1568 c 0
 1477.25421172 1568 1792 1602.23725708 1792 1120 c 1
 1600 1120 l 1
 1600 1457.28339274 1355.55637393 1408 1024 1408 c 0
 782.912794666 1408 512 1447.91579584 512 1216 c 0
 512 1110.29453529 596.938477199 1061.5307614 672 1024 c 2
 2304 192 l 1
 2240 32 l 1
 640 833 l 1
 429.577915289 833 320 724.600086374 320 512 c 0
 320 123.492929177 702.630236149 192 1088 192 c 0
EndSplineSet
EndChar

StartChar: quotesingle
Encoding: 29 39 14
Width: 448
GlyphClass: 2
Flags: HW
HStem: 1152 384<160 288>
VStem: 160 128<1152 1324.03>
LayerCount: 2
Fore
SplineSet
128 1536 m 1
 320 1536 l 1
 288 1152 l 1
 160 1152 l 1
 128 1536 l 1
EndSplineSet
EndChar

StartChar: parenleft
Encoding: 30 40 15
Width: 768
GlyphClass: 2
Flags: HW
HStem: -64 160<449.91 640> 1440 160<449.91 640>
VStem: 128 192<265.046 1270.95>
LayerCount: 2
Fore
SplineSet
320 768 m 256
 320 419.984715043 289.821244224 96 640 96 c 1
 640 -64 l 1
 172.736680404 -64 128 302.825853836 128 768 c 256
 128 1230.78032018 175.217230332 1600 640 1600 c 1
 640 1440 l 1
 289.822785542 1440 320 1116.01192383 320 768 c 256
EndSplineSet
EndChar

StartChar: parenright
Encoding: 31 41 16
Width: 768
GlyphClass: 2
Flags: HW
HStem: -64 160<128 318.09> 1440 160<128 318.09>
VStem: 448 192<265.046 1270.95>
LayerCount: 2
Fore
SplineSet
128 1600 m 1
 595.263319596 1600 640 1233.17414616 640 768 c 256
 640 305.219679823 592.782769668 -64 128 -64 c 1
 128 96 l 1
 478.074210753 96 448 420.009822214 448 768 c 256
 448 1115.99354852 478.077107694 1440 128 1440 c 1
 128 1600 l 1
EndSplineSet
EndChar

StartChar: asterisk
Encoding: 32 42 17
Width: 1415
GlyphClass: 2
Flags: HW
HStem: 1516 20G<612 804>
LayerCount: 2
Fore
SplineSet
420 384 m 1
 264 495 l 1
 628 896 l 1
 128 1072 l 1
 228 1250 l 1
 660 992 l 1
 612 1536 l 1
 804 1536 l 1
 756 992 l 1
 1187 1250 l 1
 1287 1072 l 1
 788 896 l 1
 1152 495 l 1
 996 384 l 1
 708 834 l 1
 420 384 l 1
EndSplineSet
EndChar

StartChar: plus
Encoding: 33 43 18
Width: 1344
GlyphClass: 2
Flags: HW
HStem: 800 160<128 576 768 1216>
VStem: 576 192<320 800 960 1408>
LayerCount: 2
Fore
SplineSet
128 960 m 1
 576 960 l 1
 576 1408 l 1
 768 1408 l 1
 768 960 l 1
 1216 960 l 1
 1216 800 l 1
 768 800 l 1
 768 320 l 1
 576 320 l 1
 576 800 l 1
 128 800 l 1
 128 960 l 1
EndSplineSet
EndChar

StartChar: comma
Encoding: 34 44 19
Width: 448
GlyphClass: 2
Flags: HW
HStem: -256 384<128 192>
VStem: 64 256
LayerCount: 2
Fore
SplineSet
128 128 m 1
 320 128 l 1
 192 -256 l 1
 64 -256 l 1
 128 128 l 1
EndSplineSet
EndChar

StartChar: hyphen
Encoding: 35 45 20
Width: 1024
GlyphClass: 2
Flags: HW
HStem: 512 160<128 896>
LayerCount: 2
Fore
SplineSet
128 672 m 1
 896 672 l 1
 896 512 l 1
 128 512 l 1
 128 672 l 1
EndSplineSet
EndChar

StartChar: period
Encoding: 36 46 21
Width: 448
GlyphClass: 2
Flags: HW
HStem: 0 192<128 320>
VStem: 128 192<0 192>
LayerCount: 2
Fore
SplineSet
320 0 m 1
 128 0 l 1
 128 192 l 1
 320 192 l 1
 320 0 l 1
EndSplineSet
EndChar

StartChar: slash
Encoding: 37 47 22
Width: 1023
GlyphClass: 2
Flags: HW
HStem: 0 21G<64 265.167> 1516 20G<758.833 960>
DStem2: 64 0 256 0 0.416655 0.909065<79.9977 1689.65>
LayerCount: 2
Fore
SplineSet
768 1536 m 1
 960 1536 l 1
 256 0 l 1
 64 0 l 1
 768 1536 l 1
EndSplineSet
EndChar

StartChar: zero
Encoding: 38 48 23
Width: 2048
GlyphClass: 2
Flags: HW
HStem: -32 160<457.678 1591.32> 1408 160<457.678 1591.32>
VStem: 129 192<265.621 1272.77> 1728 192<265.621 1270.38>
LayerCount: 2
Fore
SplineSet
1217 1568 m 2
 1814.16380016 1568 1920 1371.65742785 1920 768 c 256
 1920 178.20901965 1819.85307456 -32 1217 -32 c 2
 832 -32 l 2
 234.101170931 -32 129 163.310599215 129 768 c 256
 129 1357.72701902 228.063687995 1568 832 1568 c 2
 1217 1568 l 2
1217 128 m 2
 1707.02350766 128 1728 268.9377355 1728 768 c 256
 1728 1239.56282808 1731.30808357 1408 1217 1408 c 2
 832 1408 l 2
 340.789845684 1408 321 1268.46261766 321 768 c 256
 321 296.297337182 317.304706987 128 832 128 c 2
 1217 128 l 2
EndSplineSet
EndChar

StartChar: one
Encoding: 39 49 24
Width: 992
GlyphClass: 2
Flags: HW
HStem: 0 21G<672 864> 1516 20G<584.923 864>
VStem: 672 192<0 1376>
DStem2: 128 1120 224 992 0.755689 0.654931<0 578.757>
LayerCount: 2
Fore
SplineSet
608 1536 m 1
 864 1536 l 1
 864 0 l 1
 672 0 l 1
 672 1376 l 1
 224 992 l 1
 128 1120 l 1
 608 1536 l 1
EndSplineSet
EndChar

StartChar: two
Encoding: 40 50 25
Width: 1984
GlyphClass: 2
Flags: HW
HStem: 0 160<320 1824> 1408 160<475.607 1545.59>
VStem: 128 192<160 489.118 992 1288.91> 1663 193<857.508 1302.5>
DStem2: 448 704 512 544 0.995634 0.0933407<-106.975 1180.7>
LayerCount: 2
Fore
SplineSet
1024 1568 m 256
 1498.37449368 1568 1856 1565.27872271 1856 1088 c 0
 1856 822.634069216 1780.24873195 662.898318621 1536 640 c 2
 512 544 l 2
 304.990375266 524.149762012 320 389.430316547 320 160 c 1
 1824 160 l 1
 1824 0 l 1
 128 0 l 1
 128 192 l 2
 128 480.994049403 181.969632949 679.170499075 448 704 c 2
 1472 800 l 1
 1637.6881219 813.807343492 1663 901.213396045 1663 1087 c 0
 1663 1449.48156567 1381.99178413 1408 1024 1408 c 0
 590.677720684 1408 320 1459.62605641 320 992 c 1
 128 992 l 1
 128 1548.60261018 471.27573259 1568 1024 1568 c 256
EndSplineSet
EndChar

StartChar: three
Encoding: 41 51 26
Width: 1984
GlyphClass: 2
Flags: HW
HStem: -32 160<447.382 1545.59> 704 160<768 1616.96> 1408 160<433.7 1545.59>
VStem: 128 195.5<223.453 480 1088 1322.09> 1663 193<233.501 657.533 907.05 1302.5>
LayerCount: 2
Fore
SplineSet
1663 449 m 0
 1663 616.818451132 1636.00036382 704 1472 704 c 2
 768 704 l 1
 768 864 l 1
 1472 864 l 2
 1624.55514511 864 1663 931.45590021 1663 1087 c 0
 1663 1449.48156567 1381.99178413 1408 1024 1408 c 0
 655.7513786 1408 320 1491.64679843 320 1088 c 1
 128 1088 l 1
 128 1588.52450896 527.144352711 1568 1024 1568 c 256
 1498.37449368 1568 1856 1565.27872271 1856 1088 c 0
 1856 917.203496387 1813.84526202 834.505112295 1696 784 c 1
 1814.9671633 733.01407287 1856 619.930133147 1856 448 c 0
 1856 -29.271816595 1498.37571549 -32 1024 -32 c 256
 519.242839757 -32 128 -46.1691735314 128 480 c 1
 320 480 l 1
 320 77.0791559114 618.874248491 128 1024 128 c 0
 1381.99268214 128 1663 86.5117519268 1663 449 c 0
EndSplineSet
EndChar

StartChar: four
Encoding: 42 52 27
Width: 2048
GlyphClass: 2
Flags: HW
HStem: 0 21G<1472 1664> 320 160<320 1472 1664 1920> 1516 20G<1383 1664>
VStem: 1472 192<0 320 480 1408>
DStem2: 128 512 320 480 0.780869 0.624695<129.937 1609.21>
LayerCount: 2
Fore
SplineSet
1664 320 m 1
 1664 0 l 1
 1472 0 l 1
 1472 320 l 1
 128 320 l 1
 128 512 l 1
 1408 1536 l 1
 1664 1536 l 1
 1664 480 l 1
 1920 480 l 1
 1920 320 l 1
 1664 320 l 1
1472 480 m 1
 1472 1408 l 1
 320 480 l 1
 1472 480 l 1
EndSplineSet
EndChar

StartChar: five
Encoding: 43 53 28
Width: 1984
GlyphClass: 2
Flags: HW
HStem: -32 160<447.382 1525.43> 896 160<472.508 1565.87> 1376 160<320 1792>
VStem: 128 192<226.789 480 736 814 896 1376> 1664 192<256.839 797.981>
LayerCount: 2
Fore
SplineSet
320 896 m 1
 381.26443726 1018.52887452 576.468367704 1056 768 1056 c 2
 1280 1056 l 2
 1709.23722284 1056 1856 940.986018718 1856 512 c 0
 1856 -0.87409366918 1533.38588747 -32 1024 -32 c 256
 519.242839757 -32 128 -46.1691735314 128 480 c 1
 320 480 l 1
 320 77.0791559114 618.874248491 128 1024 128 c 0
 1423.78636273 128 1664 108.206693375 1664 513 c 0
 1664 828.034425747 1593.46923969 896 1280 896 c 2
 768 896 l 2
 403.5 896 320 736 320 736 c 1
 128 736 l 1
 128 1536 l 1
 1792 1536 l 1
 1792 1376 l 1
 320 1376 l 1
 320 896 l 1
EndSplineSet
EndChar

StartChar: six
Encoding: 44 54 29
Width: 1984
GlyphClass: 2
Flags: HW
HStem: -32 160<467.655 1539.32> 768 160<439.762 1539.32> 1408 160<479.5 1438.83>
VStem: 131.5 188.5<261.377 688.597 832 1263.81> 1632 159<1120 1282.58> 1664 192<232.423 661.677>
LayerCount: 2
Fore
SplineSet
1632 1120 m 1
 1632 1420.88570857 1271.386164 1408 960 1408 c 0
 448.219118049 1408 320 1378.02116439 320 832 c 1
 444.491058412 907.013842889 615.716102573 928 832 928 c 2
 1153 928 l 2
 1578.04472132 928 1856 860.37663059 1856 448 c 256
 1856 35.6453616188 1578.01792639 -32 1153 -32 c 2
 832 -32 l 2
 234.482262528 -32 128 163.874338353 128 768 c 0
 128 1421.62134575 296.17155729 1568 960 1568 c 0
 1394.83575124 1568 1791 1550.99451676 1791 1120 c 1
 1632 1120 l 1
1664 448 m 256
 1664 761.693830783 1465.43168945 768 1153 768 c 2
 832 768 l 2
 552.69428371 768 320 792.888378941 320 512 c 0
 320 166.00892734 487.329640401 128 832 128 c 2
 1153 128 l 2
 1465.89173485 128 1664 133.461166353 1664 448 c 256
EndSplineSet
EndChar

StartChar: seven
Encoding: 45 55 30
Width: 1984
GlyphClass: 2
Flags: HW
HStem: 0 21G<448 721.143> 1376 160<128 1632>
VStem: 448 256<0 256>
DStem2: 448 0 704 0 0.652242 0.758011<166.974 1815.28>
LayerCount: 2
Fore
SplineSet
704 0 m 1
 448 0 l 1
 1632 1376 l 1
 128 1376 l 1
 128 1536 l 1
 1856 1536 l 1
 1856 1344 l 1
 704 0 l 1
EndSplineSet
EndChar

StartChar: eight
Encoding: 46 56 31
Width: 1984
GlyphClass: 2
Flags: HW
HStem: -32 160<448.743 1536.18> 736 160<451.475 1531.64> 1408 160<456.799 1527.2>
VStem: 128 192<233.517 627.929> 160 192<979.08 1321.72> 1632 192<978.785 1322.25> 1664 192<233 627.929>
LayerCount: 2
Fore
SplineSet
160 1152 m 0
 160 1526.1137956 472.553006839 1568 863 1568 c 2
 1121 1568 l 2
 1511.48976426 1568 1824 1526.12565636 1824 1152 c 0
 1824 962.069070528 1741.82470834 868.919667291 1600 816 c 1
 1763.09167756 755.913592479 1856 649.58389357 1856 432 c 0
 1856 29.5231083318 1558.04779573 -32 1152 -32 c 2
 831 -32 l 2
 417.655598674 -32 128 33.051641252 128 432 c 0
 128 650.092677508 220.014964681 756.369078066 384 816 c 1
 241.63575259 869.120987839 160 961.412118397 160 1152 c 0
320 432 m 0
 320 133.119961522 532.584445416 128 831 128 c 2
 1152 128 l 2
 1450.57277193 128 1664 132.976553255 1664 432 c 0
 1664 728.48346138 1448.2647753 736 1152 736 c 2
 831 736 l 2
 534.900994202 736 320 728.223158593 320 432 c 0
352 1152 m 0
 352 877.975916608 588.838997611 896 863 896 c 2
 1152 896 l 2
 1425.91834434 896 1632 887.770838154 1632 1152 c 0
 1632 1423.06700573 1391.44529476 1408 1120 1408 c 2
 863 1408 l 2
 591.688371333 1408 352 1422.8425983 352 1152 c 0
EndSplineSet
EndChar

StartChar: nine
Encoding: 47 57 32
Width: 1984
GlyphClass: 2
Flags: HW
HStem: -32 160<545.17 1504.5> 608 160<444.68 1544.79> 1408 160<444.68 1516.35>
VStem: 128 192<874.323 1303.58> 205.5 152<247.775 416> 1664 188.5<272.19 704 846.418 1275.47>
LayerCount: 2
Fore
SplineSet
352 416 m 1
 352 115.114291426 712.613835998 128 1024 128 c 0
 1535.78088195 128 1664 157.978835609 1664 704 c 1
 1539.50894159 628.986157111 1368.28389743 608 1152 608 c 2
 831 608 l 2
 405.955278679 608 128 675.62336941 128 1088 c 256
 128 1500.35463838 405.982073609 1568 831 1568 c 2
 1152 1568 l 2
 1749.51773747 1568 1856 1372.12566165 1856 768 c 0
 1856 114.378654249 1687.82844271 -32 1024 -32 c 0
 589.164248765 -32 193 -14.9945167607 193 416 c 1
 352 416 l 1
320 1088 m 256
 320 774.306169217 518.568310554 768 831 768 c 2
 1152 768 l 2
 1439.14608626 768 1664 743.350695578 1664 1024 c 0
 1664 1370.88836553 1501.91510584 1408 1152 1408 c 2
 831 1408 l 2
 518.108265155 1408 320 1402.53883365 320 1088 c 256
EndSplineSet
EndChar

StartChar: colon
Encoding: 48 58 33
Width: 448
GlyphClass: 2
Flags: HW
HStem: 192 192<128 320> 768 192<128 320>
VStem: 128 192<192 384 768 960>
LayerCount: 2
Fore
SplineSet
320 768 m 1
 128 768 l 1
 128 960 l 1
 320 960 l 1
 320 768 l 1
320 192 m 1
 128 192 l 1
 128 384 l 1
 320 384 l 1
 320 192 l 1
EndSplineSet
EndChar

StartChar: semicolon
Encoding: 49 59 34
Width: 448
GlyphClass: 2
Flags: HW
HStem: 768 192<128 320>
VStem: 128 192<468.992 512 768 960>
LayerCount: 2
Fore
SplineSet
128 512 m 1
 320 512 l 1
 192 128 l 1
 64 128 l 1
 128 512 l 1
320 768 m 1
 128 768 l 1
 128 960 l 1
 320 960 l 1
 320 768 l 1
EndSplineSet
EndChar

StartChar: less
Encoding: 50 60 35
Width: 1152
GlyphClass: 2
Flags: HW
VStem: 128 144<736 928>
LayerCount: 2
Fore
SplineSet
1024 1472 m 1
 1024 1216 l 1
 272 832 l 1
 1024 448 l 1
 1024 192 l 1
 128 736 l 1
 128 928 l 1
 1024 1472 l 1
EndSplineSet
EndChar

StartChar: equal
Encoding: 51 61 36
Width: 1472
GlyphClass: 2
Flags: HW
HStem: 320 160<128 1344> 864 160<128 1344>
LayerCount: 2
Fore
SplineSet
128 1024 m 1
 1344 1024 l 1
 1344 864 l 1
 128 864 l 1
 128 1024 l 1
128 480 m 1
 1344 480 l 1
 1344 320 l 1
 128 320 l 1
 128 480 l 1
EndSplineSet
EndChar

StartChar: greater
Encoding: 52 62 37
Width: 1152
GlyphClass: 2
Flags: HW
VStem: 880 144<736 928>
LayerCount: 2
Fore
SplineSet
1024 928 m 1
 1024 736 l 1
 128 192 l 1
 128 448 l 1
 880 832 l 1
 128 1216 l 1
 128 1472 l 1
 1024 928 l 1
EndSplineSet
EndChar

StartChar: question
Encoding: 53 63 38
Width: 1856
GlyphClass: 2
Flags: HW
HStem: 0 192<704 896> 736 160<995.061 1449.02> 1408 160<425.628 1446.17>
VStem: 128 192<1122 1326.31> 704 192<0 192 321 643.49> 1535 193<978.224 1326.21>
LayerCount: 2
Fore
SplineSet
1280 736 m 0
 948.56617227 736 896 651.786683861 896 321 c 1
 704 321 l 1
 704 387 l 2
 704 762.895270303 837.86188803 896 1216 896 c 0
 1423.61466359 896 1535 942.114121083 1535 1152 c 0
 1535 1433.70724358 1309.26434461 1408 1024 1408 c 0
 682.124177982 1408 320 1494.93864745 320 1122 c 1
 128 1122 l 1
 128 1595.702297 552.505113463 1568 1024 1568 c 0
 1421.00635738 1568 1728 1551.53290963 1728 1153 c 0
 1728 874.848562212 1562.97317512 736 1280 736 c 0
896 0 m 1
 704 0 l 1
 704 192 l 1
 896 192 l 1
 896 0 l 1
EndSplineSet
EndChar

StartChar: at
Encoding: 54 64 39
Width: 2240
GlyphClass: 2
Flags: HW
HStem: -224 167.5<645.209 1791> 128 160<773.863 1394.46 1707.54 1903.2> 864 160<773.863 1372.23> 1216 160<654.237 1653.27>
VStem: 128 193<190.905 977.421> 512 192<353.908 798.092> 1504 192<371.195 778.711 864 992> 1920 192<302.643 984.492>
LayerCount: 2
Fore
SplineSet
704 576 m 256
 704 288.60178956 832.788972239 288 1117 288 c 0
 1378.86992311 288 1504 310.87552012 1504 573 c 0
 1504 838.223469091 1381.9054081 864 1117 864 c 0
 832.797535058 864 704 863.409007322 704 576 c 256
1152 -224 m 2
 473.633323658 -224 128 -101.086535606 128 576 c 0
 128 1283.62479832 435.941008415 1376 1152 1376 c 0
 1533.7331288 1376 1889.02774288 1353.95593779 2033.5 1124.5 c 128
 2061.83333333 1079.5 2088 864.666666667 2112 480 c 1
 2112 224.853291297 2047.18810022 128 1791 128 c 0
 1651.94667991 128 1567 187.356627926 1567 320 c 1
 1503.31617274 182.442933124 1324.00796515 128 1117 128 c 0
 720.706424892 128 512 179.018078055 512 576 c 256
 512 972.97064956 720.701091823 1024 1117 1024 c 0
 1291.70506362 1024 1449.93387277 979.855986915 1504 864 c 1
 1504 992 l 1
 1696 992 l 1
 1696 480 l 2
 1696 371.824606023 1685.90632013 288 1791 288 c 0
 1916.9513234 288 1920 352.603384431 1920 480 c 2
 1920 768 l 2
 1920 1222.74707427 1603.83836364 1216 1152 1216 c 0
 564.327321749 1216 321 1194.97100918 321 576 c 0
 321 -237.398295306 802.906795776 -64 1791 -64 c 1
 1791 -224 l 1
 1152 -224 l 2
EndSplineSet
EndChar

StartChar: A
Encoding: 55 65 40
Width: 2176
GlyphClass: 2
Flags: HW
HStem: 0 21G<64 298.909 1877.09 2112> 352 160<576 1600> 1408 128<960 1216>
DStem2: 64 0 288 0 0.503871 0.863779<112.867 513.661 700.237 700.237> 1216 1536 1088 1408 0.503871 -0.863779<46.0682 1078 1264.57 1264.57>
LayerCount: 2
Fore
SplineSet
1696 352 m 1
 480 352 l 1
 288 0 l 1
 64 0 l 1
 960 1536 l 1
 1216 1536 l 1
 2112 0 l 1
 1888 0 l 1
 1696 352 l 1
1600 512 m 1
 1088 1408 l 1
 576 512 l 1
 1600 512 l 1
EndSplineSet
EndChar

StartChar: B
Encoding: 56 66 41
Width: 2112
GlyphClass: 2
Flags: HW
HStem: 0 160<384 1691.44> 736 160<384 1641.95> 1376 160<384 1675.73>
VStem: 192 192<160 736 896 1376> 1728 192<974.064 1324.34> 1792 192<251.837 659.089>
LayerCount: 2
Fore
SplineSet
1984 478 m 0
 1984 61.3369738974 1760.16893334 0 1343 0 c 2
 192 0 l 1
 192 1536 l 1
 1473 1536 l 2
 1773.33157309 1536 1920 1467.32850073 1920 1174 c 0
 1920 982.67456508 1836.99776944 844.013733989 1664 832 c 1
 1863.0862749 820.939651394 1984 692.919088851 1984 478 c 0
1792 478 m 0
 1792 761.86103735 1560.98662126 736 1279 736 c 2
 384 736 l 1
 384 160 l 1
 1279 160 l 2
 1603.67102498 160 1792 149.895279383 1792 478 c 0
1728 1174 m 0
 1728 1369.12825012 1606.86334571 1376 1409 1376 c 2
 384 1376 l 1
 384 896 l 1
 1279 896 l 2
 1557.54292806 896 1728 893.062847291 1728 1174 c 0
EndSplineSet
EndChar

StartChar: C
Encoding: 57 67 42
Width: 2111
GlyphClass: 2
Flags: HW
HStem: -32 160<456.678 1658.06> 1408 160<456.678 1657.27>
VStem: 128 192<265.621 1272.77> 1791 192<250.36 512 1056 1284.25>
LayerCount: 2
Fore
SplineSet
1983 512 m 1
 1983 58.0599475972 1735.07994395 -32 1280 -32 c 2
 831 -32 l 2
 233.101170931 -32 128 163.310599215 128 768 c 256
 128 1357.72701902 227.063687995 1568 831 1568 c 2
 1280 1568 l 2
 1716.06347471 1568 1983 1492.39066213 1983 1056 c 1
 1791 1056 l 1
 1791 1387.61698989 1612.46814005 1408 1280 1408 c 2
 831 1408 l 2
 339.789845684 1408 320 1268.46261766 320 768 c 256
 320 296.297337182 316.304706987 128 831 128 c 2
 1280 128 l 2
 1632.37558928 128 1791 157.881631428 1791 512 c 1
 1983 512 l 1
EndSplineSet
EndChar

StartChar: D
Encoding: 58 68 43
Width: 2176
GlyphClass: 2
Flags: HW
HStem: 0 160<384 1723.97> 1376 160<384 1723.97>
VStem: 192 192<160 1376> 1856 192<292.666 1243.33>
LayerCount: 2
Fore
SplineSet
1343 160 m 2
 1821.41522216 160 1856 278.857244491 1856 768 c 256
 1856 1231.15852608 1845.05034721 1376 1343 1376 c 2
 384 1376 l 1
 384 160 l 1
 1343 160 l 2
192 0 m 1
 192 1536 l 1
 1343 1536 l 2
 1929.3560203 1536 2048 1360.94734926 2048 768 c 256
 2048 188.238015479 1934.1239005 0 1343 0 c 2
 192 0 l 1
EndSplineSet
EndChar

StartChar: E
Encoding: 59 69 44
Width: 1792
GlyphClass: 2
Flags: HW
HStem: 0 160<384 1728> 704 160<384 1664> 1376 160<384 1728>
VStem: 192 192<160 704 864 1376>
LayerCount: 2
Fore
SplineSet
192 0 m 1
 192 1536 l 1
 1728 1536 l 1
 1728 1376 l 1
 384 1376 l 1
 384 864 l 1
 1664 864 l 1
 1664 704 l 1
 384 704 l 1
 384 160 l 1
 1728 160 l 1
 1728 0 l 1
 192 0 l 1
EndSplineSet
EndChar

StartChar: F
Encoding: 60 70 45
Width: 1728
GlyphClass: 2
Flags: HW
HStem: 0 21G<192 384> 704 160<384 1600> 1376 160<384 1664>
VStem: 192 192<0 704 864 1376>
LayerCount: 2
Fore
SplineSet
192 0 m 1
 192 1536 l 1
 1664 1536 l 1
 1664 1376 l 1
 384 1376 l 1
 384 864 l 1
 1600 864 l 1
 1600 704 l 1
 384 704 l 1
 384 0 l 1
 192 0 l 1
EndSplineSet
EndChar

StartChar: G
Encoding: 61 71 46
Width: 2177
GlyphClass: 2
Flags: HW
HStem: -32 160<456.678 1724.06> 608 160<1087 1857> 1408 160<456.678 1723.06>
VStem: 128 192<265.621 1272.77> 1857 192<250.36 608 1056 1284.25>
LayerCount: 2
Fore
SplineSet
2049 512 m 2
 2049 58.0599475972 1801.07994395 -32 1346 -32 c 2
 831 -32 l 2
 233.101170931 -32 128 163.310599215 128 768 c 256
 128 1357.72701902 227.063687995 1568 831 1568 c 2
 1345 1568 l 2
 1781.14161901 1568 2049 1492.51182492 2049 1056 c 1
 1857 1056 l 1
 1857 1387.99655455 1677.82340592 1408 1345 1408 c 2
 831 1408 l 2
 339.789845684 1408 320 1268.46261766 320 768 c 256
 320 296.297337182 316.304706987 128 831 128 c 2
 1346 128 l 2
 1698.37558928 128 1857 157.881631428 1857 512 c 2
 1857 608 l 1
 1087 608 l 1
 1087 768 l 1
 2049 768 l 1
 2049 512 l 2
EndSplineSet
EndChar

StartChar: H
Encoding: 62 72 47
Width: 2176
GlyphClass: 2
Flags: HW
HStem: 0 21G<192 384 1792 1984> 704 160<384 1792> 1516 20G<192 384 1792 1984>
VStem: 192 192<0 704 864 1536> 1792 192<0 704 864 1536>
LayerCount: 2
Fore
SplineSet
1792 1536 m 1
 1984 1536 l 1
 1984 0 l 1
 1792 0 l 1
 1792 704 l 1
 384 704 l 1
 384 0 l 1
 192 0 l 1
 192 1536 l 1
 384 1536 l 1
 384 864 l 1
 1792 864 l 1
 1792 1536 l 1
EndSplineSet
EndChar

StartChar: J
Encoding: 64 74 49
Width: 1715
GlyphClass: 2
Flags: HW
HStem: 0 156<388.971 1244.01> 1516 20G<1344 1536>
VStem: 128 192<231.755 576> 1344 192<251.046 1536>
LayerCount: 2
Fore
SplineSet
1536 448 m 2
 1536 105.634730739 1369.21418094 0 1024 0 c 2
 576 0 l 2
 205.285456587 0 128 142.184363745 128 512 c 2
 128 576 l 1
 320 576 l 1
 320 512 l 2
 320 272.649352154 341.427067186 156 576 156 c 2
 1024 156 l 2
 1247.78174445 156 1344 226.781651499 1344 448 c 2
 1344 1536 l 1
 1536 1536 l 1
 1536 448 l 2
EndSplineSet
EndChar

StartChar: K
Encoding: 65 75 50
Width: 2016
GlyphClass: 2
Flags: HW
HStem: 0 21G<192 384 1634.91 1952> 704 160<384 640> 1516 20G<192 384 1602.48 1920>
VStem: 192 192<0 704 864 1536> 1632 288<1248 1536> 1664 288<0 288>
DStem2: 640 864 832 784 0.822627 0.568581<112.458 1198.13> 832 784 640 704 0.819232 -0.573462<0 1131.2>
LayerCount: 2
Fore
SplineSet
1632 1536 m 1
 1920 1536 l 1
 832 784 l 1
 1952 0 l 1
 1664 0 l 1
 640 704 l 1
 384 704 l 1
 384 0 l 1
 192 0 l 1
 192 1536 l 1
 384 1536 l 1
 384 864 l 1
 640 864 l 1
 1632 1536 l 1
EndSplineSet
EndChar

StartChar: L
Encoding: 66 76 51
Width: 1664
GlyphClass: 2
Flags: HW
HStem: 0 160<384 1600> 1516 20G<192 384>
VStem: 192 192<160 1536>
LayerCount: 2
Fore
SplineSet
192 0 m 1
 192 1536 l 1
 384 1536 l 1
 384 160 l 1
 1600 160 l 1
 1600 0 l 1
 192 0 l 1
EndSplineSet
EndChar

StartChar: M
Encoding: 67 77 52
Width: 2800
GlyphClass: 2
Flags: HW
HStem: 0 192<1310 1504> 1516 20G<192 525.318 2288.68 2608>
VStem: 192 192<0 1408> 2416 192<0 1387>
DStem2: 512 1536 384 1408 0.549486 -0.835503<36.6102 1614.71> 1407 192 1504 0 0.549406 0.835555<0 1552.84>
LayerCount: 2
Fore
SplineSet
384 1408 m 1
 384 0 l 1
 192 0 l 1
 192 1536 l 1
 512 1536 l 1
 1407 192 l 1
 2302 1536 l 1
 2608 1536 l 1
 2608 0 l 1
 2416 0 l 1
 2416 1387 l 1
 1504 0 l 1
 1310 0 l 1
 384 1408 l 1
EndSplineSet
EndChar

StartChar: N
Encoding: 68 78 53
Width: 2321
GlyphClass: 2
Flags: HW
HStem: 0 21G<192 384 1851.36 2129> 1516 20G<192 549.952 1937 2129>
VStem: 192 192<0 1376> 1937 192<192 1536>
LayerCount: 2
Fore
SplineSet
384 0 m 1
 192 0 l 1
 192 1536 l 1
 529 1536 l 1
 1937 192 l 1
 1937 1536 l 1
 2129 1536 l 1
 2129 0 l 1
 1873 0 l 1
 384 1376 l 1
 384 0 l 1
EndSplineSet
EndChar

StartChar: O
Encoding: 69 79 54
Width: 2240
GlyphClass: 2
Flags: HW
HStem: -32 160<456.678 1783.32> 1408 160<456.678 1783.32>
VStem: 128 192<265.621 1272.77> 1920 192<265.621 1270.38>
LayerCount: 2
Fore
SplineSet
1409 1568 m 2
 2006.16380016 1568 2112 1371.65742785 2112 768 c 256
 2112 178.20901965 2011.85307456 -32 1409 -32 c 2
 831 -32 l 2
 233.101170931 -32 128 163.310599215 128 768 c 256
 128 1357.72701902 227.063687995 1568 831 1568 c 2
 1409 1568 l 2
1409 128 m 2
 1898.89345782 128 1920 269.087538518 1920 768 c 256
 1920 1239.56282808 1923.30808357 1408 1409 1408 c 2
 831 1408 l 2
 339.789845684 1408 320 1268.46261766 320 768 c 256
 320 296.297337182 316.304706987 128 831 128 c 2
 1409 128 l 2
EndSplineSet
EndChar

StartChar: P
Encoding: 70 80 55
Width: 1984
GlyphClass: 2
Flags: HW
HStem: 0 21G<192 384> 608 160<384 1645.72> 1376 160<384 1659.19>
VStem: 192 192<0 608 768 1376> 1728 192<841.524 1314.55>
LayerCount: 2
Fore
SplineSet
1920 1088 m 0
 1920 633.042619876 1668.36992159 608 1215 608 c 2
 384 608 l 1
 384 0 l 1
 192 0 l 1
 192 1536 l 1
 1346 1536 l 2
 1746.67621762 1536 1920 1490.92278785 1920 1088 c 0
384 768 m 1
 1215 768 l 2
 1542.75141142 768 1728 732.36045817 1728 1088 c 0
 1728 1408.11532775 1540.49526686 1376 1215 1376 c 2
 384 1376 l 1
 384 768 l 1
EndSplineSet
EndChar

StartChar: Q
Encoding: 71 81 56
Width: 2352
GlyphClass: 2
Flags: HW
HStem: -32 160<457.678 832 1410 1784.32> 1408 160<457.678 832 1410 1784.32>
VStem: 129 192<265.621 520.5 1015.5 1272.77> 1921 192<426.402 520 1015.5 1270.38>
DStem2: 1328 800 1247 671 0.841879 -0.539666<1.42472 695.414 929.305 1065.17>
LayerCount: 2
Fore
SplineSet
2086 319 m 0
 2115.37676179 449.72658997 2113 601.066497458 2113 768 c 256
 2113 1357.79098035 2012.85307456 1568 1410 1568 c 2
 832 1568 l 2
 234.101170931 1568 129 1372.68940079 129 768 c 256
 129 178.27298098 228.063687995 -32 832 -32 c 2
 1410 -32 l 2
 1659.23110907 -32 1970.29621729 -3.11134813273 2028 170 c 1
 2144 96 l 1
 2224 224 l 1
 2085 313 l 1
 2085.66666667 315 2086 317 2086 319 c 0
1877 267 m 1
 1814.19392258 127.43093907 1621.48058223 128 1410 128 c 2
 832 128 l 2
 341.705277135 128 321 268.586526952 321 768 c 256
 321 1239.63553031 315.829501929 1408 832 1408 c 2
 1410 1408 l 2
 1900.10078182 1408 1921 1267.12432944 1921 768 c 256
 1921 630.386609405 1923.1676701 535.844371076 1913 424 c 1
 1328 800 l 1
 1247 671 l 1
 1877 267 l 1
EndSplineSet
EndChar

StartChar: R
Encoding: 72 82 57
Width: 2112
GlyphClass: 2
Flags: HW
HStem: 0 21G<192 384 1760 1952> 608 160<384 1677.88> 1376 160<384 1724.19>
VStem: 192 192<0 608 768 1376> 1760 192<0 534.968> 1792 192<840.986 1314.55>
LayerCount: 2
Fore
SplineSet
1707 672 m 1
 1907.17805341 641.973291988 1952 517.009403828 1952 288 c 2
 1952 0 l 1
 1760 0 l 1
 1760 288 l 2
 1760 624.385546138 1589.05145697 608 1247 608 c 2
 384 608 l 1
 384 0 l 1
 192 0 l 1
 192 1536 l 1
 1279 1536 l 2
 1717.08686278 1536 1984 1527.3264108 1984 1088 c 0
 1984 842.598235571 1920.08930101 703.963395151 1707 672 c 1
384 768 m 1
 1279 768 l 2
 1606.75141142 768 1792 732.36045817 1792 1088 c 0
 1792 1408.11532775 1604.49526686 1376 1279 1376 c 2
 384 1376 l 1
 384 768 l 1
EndSplineSet
EndChar

StartChar: S
Encoding: 73 83 58
Width: 1984
GlyphClass: 2
Flags: HW
HStem: -36 164<420.282 1490.75> 704 160<1160 1160 1431 1543.98> 1152 21G<1664 1856> 1408 160<486.498 1564.72>
VStem: 128 192<216.582 384 960.18 1287.28> 1664 192<257.456 606.082 1152 1320.37>
LayerCount: 2
Fore
SplineSet
320 1128 m 0
 320 841.767144058 607.250553189 864 896 864 c 2
 1160 864 l 2
 1568.56977344 864 1856 830.300342928 1856 424 c 256
 1856 14.5768834831 1503.9553327 -36 1088 -36 c 2
 832 -36 l 2
 440.987537552 -36 129 -5.31376741551 129 384 c 1
 321 384 l 1
 321 109.764649169 552.96795829 128 832 128 c 2
 1088 128 l 2
 1386.32278095 128 1664 138.37667352 1664 424 c 256
 1664 703.175572174 1448.29702278 704 1160 704 c 2
 896 704 l 2
 478.953932148 704 128 715.125422555 128 1128 c 0
 128 1546.85334143 533.592283702 1568 960 1568 c 2
 1152 1568 l 2
 1542.12370213 1568 1856 1540.51572794 1856 1152 c 1
 1664 1152 l 1
 1664 1426.51483438 1431.28284081 1408 1152 1408 c 2
 960 1408 l 2
 648.892907645 1408 320 1422.2931068 320 1128 c 0
EndSplineSet
EndChar

StartChar: T
Encoding: 74 84 59
Width: 1984
GlyphClass: 2
Flags: HW
HStem: 0 21G<896 1088> 1376 160<128 896 1088 1856>
VStem: 896 192<0 1376>
LayerCount: 2
Fore
SplineSet
1856 1536 m 1
 1856 1376 l 1
 1088 1376 l 1
 1088 0 l 1
 896 0 l 1
 896 1376 l 1
 128 1376 l 1
 128 1536 l 1
 1856 1536 l 1
EndSplineSet
EndChar

StartChar: U
Encoding: 75 85 60
Width: 2113
GlyphClass: 2
Flags: HW
HStem: -32 160<457.678 1656.32> 1516 20G<129 321 1792 1985>
VStem: 129 192<265.621 1536> 1793 192<265.621 1536>
LayerCount: 2
Fore
SplineSet
1985 1536 m 1
 1985 768 l 2
 1985 178.20901965 1884.85307456 -32 1282 -32 c 2
 832 -32 l 2
 234.101170931 -32 129 163.310599215 129 768 c 2
 129 1536 l 1
 321 1536 l 1
 321 768 l 2
 321 296.297337182 317.304706987 128 832 128 c 2
 1282 128 l 2
 1772.47882593 128 1793 268.396871766 1793 768 c 2
 1792 1536 l 1
 1985 1536 l 1
EndSplineSet
EndChar

StartChar: V
Encoding: 76 86 61
Width: 2048
GlyphClass: 2
Flags: HW
HStem: 0 128<896 1152> 1516 20G<64 298.455 1749.55 1984>
DStem2: 288 1536 64 1536 0.476283 -0.879292<0 1588.59> 1024 128 1152 0 0.476283 0.879292<0 1588.59>
LayerCount: 2
Fore
SplineSet
1760 1536 m 1
 1984 1536 l 1
 1152 0 l 1
 896 0 l 1
 64 1536 l 1
 288 1536 l 1
 1024 128 l 1
 1760 1536 l 1
EndSplineSet
EndChar

StartChar: W
Encoding: 77 87 62
Width: 3328
GlyphClass: 2
Flags: HW
HStem: 0 21G<822 1097.05 2294.95 2569.17> 1344 192<1584 1808>
DStem2: 288 1536 64 1536 0.447214 -0.894427<0 1531.26> 960 160 1088 0 0.413005 0.910729<0 1382.27> 1808 1536 1696 1344 0.413005 -0.910729<128.603 1510.88> 2432 160 2560 0 0.416655 0.909065<0 1504.2>
LayerCount: 2
Fore
SplineSet
1584 1536 m 1
 1808 1536 l 1
 2432 160 l 1
 3040 1536 l 1
 3264 1536 l 1
 2560 0 l 1
 2304 0 l 1
 1696 1344 l 1
 1088 0 l 1
 832 0 l 1
 64 1536 l 1
 288 1536 l 1
 960 160 l 1
 1584 1536 l 1
EndSplineSet
EndChar

StartChar: X
Encoding: 78 88 63
Width: 2176
GlyphClass: 2
Flags: HW
HStem: 0 21G<64 357.545 1817.7 2112> 1516 20G<128 422.259 1697.44 1991>
VStem: 64 272<0 272> 128 272<1264 1536> 1719 272<1264 1536> 1840 272<0 272>
DStem2: 64 0 336 0 0.732967 0.680264<199.367 1190.89 1390.26 2257.95> 400 1536 128 1536 0.744331 -0.667811<0 884.536 1086.99 2097.59>
LayerCount: 2
Fore
SplineSet
1209 810 m 1
 2112 0 l 1
 1840 0 l 1
 1075 686 l 1
 336 0 l 1
 64 0 l 1
 937 810 l 1
 128 1536 l 1
 400 1536 l 1
 1070 934 l 1
 1719 1536 l 1
 1991 1536 l 1
 1209 810 l 1
EndSplineSet
EndChar

StartChar: Y
Encoding: 79 89 64
Width: 2200
GlyphClass: 2
Flags: HW
HStem: 0 784<600 1576> 1516 20G<128 402.723 1773.28 2048>
VStem: 128 256<1280 1536> 992 192<0 640> 1792 256<1280 1536>
DStem2: 384 1536 128 1536 0.694136 -0.719844<0 1029.99> 1088 784 1184 640 0.694136 0.719844<0 1029.99>
CounterMasks: 1 38
LayerCount: 2
Fore
SplineSet
128 1536 m 1
 384 1536 l 1
 1088 784 l 1
 1792 1536 l 1
 2048 1536 l 1
 1184 640 l 1
 1184 0 l 1
 992 0 l 1
 992 640 l 1
 128 1536 l 1
EndSplineSet
EndChar

StartChar: Z
Encoding: 80 90 65
Width: 2046
GlyphClass: 2
Flags: HW
HStem: 0 160<464 1920> 1376 160<192 1584>
LayerCount: 2
Fore
SplineSet
128 0 m 1
 128 160 l 1
 1614 1376 l 1
 192 1376 l 1
 192 1536 l 1
 1888 1536 l 1
 1888 1376 l 1
 394 160 l 5
 1920 160 l 1
 1920 0 l 1
 128 0 l 1
EndSplineSet
EndChar

StartChar: bracketleft
Encoding: 81 91 66
Width: 832
GlyphClass: 2
Flags: HW
HStem: 0 160<320 704> 1376 160<320 704>
VStem: 128 192<160 1376>
LayerCount: 2
Fore
SplineSet
128 1536 m 1
 704 1536 l 1
 704 1376 l 1
 320 1376 l 1
 320 160 l 1
 704 160 l 1
 704 0 l 1
 128 0 l 1
 128 1536 l 1
EndSplineSet
EndChar

StartChar: backslash
Encoding: 82 92 67
Width: 1023
GlyphClass: 2
Flags: HW
HStem: 0 21G<758.833 960> 1516 20G<64 265.167>
DStem2: 256 1536 64 1536 0.416655 -0.909065<0 1609.65>
LayerCount: 2
Fore
SplineSet
960 0 m 1
 768 0 l 1
 64 1536 l 1
 256 1536 l 1
 960 0 l 1
EndSplineSet
EndChar

StartChar: bracketright
Encoding: 83 93 68
Width: 832
GlyphClass: 2
Flags: HW
HStem: 0 160<128 512> 1376 160<128 512>
VStem: 512 192<160 1376>
LayerCount: 2
Fore
SplineSet
704 0 m 1
 128 0 l 1
 128 160 l 1
 512 160 l 1
 512 1376 l 1
 128 1376 l 1
 128 1536 l 1
 704 1536 l 1
 704 0 l 1
EndSplineSet
EndChar

StartChar: asciicircum
Encoding: 84 94 69
Width: 1088
GlyphClass: 2
Flags: HW
HStem: 1408 128<448 640>
DStem2: 64 992 192 896 0.576683 0.816968<0 616.667> 640 1536 544 1408 0.576683 -0.816968<49.2103 665.877>
LayerCount: 2
Fore
SplineSet
544 1408 m 1
 192 896 l 1
 64 992 l 1
 448 1536 l 1
 640 1536 l 1
 1024 992 l 1
 896 896 l 1
 544 1408 l 1
EndSplineSet
EndChar

StartChar: underscore
Encoding: 85 95 70
Width: 1088
GlyphClass: 2
Flags: HW
HStem: -160 160<0 1088>
LayerCount: 2
Fore
SplineSet
0 0 m 1
 1088 0 l 1
 1088 -160 l 1
 0 -160 l 1
 0 0 l 1
EndSplineSet
EndChar

StartChar: grave
Encoding: 86 96 71
Width: 960
GlyphClass: 2
Flags: HW
HStem: 1280 576
LayerCount: 2
Fore
SplineSet
128 1664 m 1
 256 1856 l 1
 832 1376 l 1
 768 1280 l 1
 128 1664 l 1
EndSplineSet
EndChar

StartChar: a
Encoding: 87 97 72
Width: 1595
GlyphClass: 2
Flags: HW
HStem: -24 152<385.015 1120.92> 0 21G<1275 1467> 496 163<363.307 1156.91> 1024 160<444.363 1138.34>
VStem: 123 192<206.712 430.943> 187 192<852 938.448> 1275 192<0 158 208.73 400.45 544 875.489>
LayerCount: 2
Fore
SplineSet
829 1184 m 0xb6
 1303.28285461 1184 1467 1029.29199219 1467 554 c 2
 1467 0 l 1
 1275 0 l 1x76
 1275 158 l 1
 1238.43680394 9.88204462182 973.361328125 -24 767 -24 c 0
 451.78515625 -24 123 -5.44531094675 123 293 c 0xba
 123 646.861827732 381.288085938 659 734 659 c 0
 935.067382812 659 1193.67874161 650.343184053 1275 544 c 1
 1275 948 1199.66813349 1024 829 1024 c 0
 623.659357686 1024 379 1044.5172027 379 852 c 1
 187 852 l 1
 187 1166.4911191 501.627029379 1184 829 1184 c 0xb6
1275.23535156 415.8828125 m 1
 1167 510 908.946289062 496 735 496 c 256
 513.559570312 496 315 530.020617183 315 320 c 256
 315 94.672812848 526.534179688 128 769 128 c 0xba
 970.280273438 128 1194 136 1276 260 c 256
 1275.23535156 415.8828125 l 1
EndSplineSet
EndChar

StartChar: b
Encoding: 88 98 73
Width: 1632
GlyphClass: 2
Flags: HW
HStem: -22 150<471.943 1194.7> 0 21G<128 320> 1023 161<476.375 1194.7> 1516 20G<128 320>
VStem: 128 192<0 127 281.217 865.656 1043 1536> 1344 192<266.878 883.5>
LayerCount: 2
Fore
SplineSet
1536 574 m 0
 1536 99.6537166229 1307.33082155 -22 832 -22 c 0
 570.435883365 -22 411.433755073 18.51482454 320 177 c 1
 320 0 l 1
 128 0 l 1
 128 1536 l 1
 320 1536 l 1
 320 1043 l 1
 395.39789136 1164.79659374 620.598980473 1184 832 1184 c 0
 1311.87791013 1184 1536 1053.22009687 1536 574 c 0
320 571 m 0
 320 193.794453861 456.108246046 128 832 128 c 0
 1217.52176395 128 1344 187.010226637 1344 574 c 256
 1344 961.576172849 1218.34533478 1023 832 1023 c 0
 452.339645319 1023 320 950.997679555 320 571 c 0
EndSplineSet
EndChar

StartChar: c
Encoding: 89 99 74
Width: 1569
GlyphClass: 2
Flags: HW
HStem: -22 150<428.329 1150.85> 1025 160<425.523 1161.67>
VStem: 96 193<247.469 905.852> 1247 194<204.479 384 789 954.619>
LayerCount: 2
Fore
SplineSet
801 -22 m 0
 306.769290633 -22 96 79.0825236436 96 574 c 0
 96 1077.23944576 298.739678165 1185 801 1185 c 0
 1169.22533401 1185 1441 1146.78577117 1441 789 c 1
 1249 789 l 1
 1249 1033.68619861 1047.08085121 1025 801 1025 c 0
 402.630621643 1025 289 975.037560274 289 574 c 0
 289 176.711105589 406.07715318 128 801 128 c 0
 1058.50875361 128 1249 126.91905107 1249 384 c 1
 1441 384 l 1
 1441 23.7213353319 1172.6564933 -22 801 -22 c 0
EndSplineSet
EndChar

StartChar: d
Encoding: 90 100 75
Width: 1632
GlyphClass: 2
Flags: HW
HStem: -22 150<437.301 1106.55> 0 21G<1312 1504> 1024 160<437.301 1159.4> 1516 20G<1312 1504>
VStem: 96 192<266.878 886.63> 1312 192<0 171 281.217 870.094 1044 1536>
LayerCount: 2
Fore
SplineSet
800 1184 m 0xbc
 1013.59214969 1184 1232.0543649 1163.91845266 1312 1044 c 1
 1312 1536 l 1
 1504 1536 l 1
 1504 0 l 1
 1312 0 l 1x7c
 1312 171 l 1
 1264.5 114 l 1
 1164.87012135 17.8864700085 1007.33494107 -22 800 -22 c 0
 324.677707945 -22 96 99.6341939516 96 574 c 0
 96 1056.89637509 317.109251795 1184 800 1184 c 0xbc
288 574 m 0
 288 187.024426073 414.465861936 128 800 128 c 0xbc
 1175.87923071 128 1312 193.782434171 1312 571 c 0
 1312 954.965809231 1183.24829835 1024 800 1024 c 0
 412.083439391 1024 288 963.542542537 288 574 c 0
EndSplineSet
EndChar

StartChar: e
Encoding: 91 101 76
Width: 1568
GlyphClass: 2
Flags: HW
HStem: -22 150<428.741 1174.24> 528 128<288 1248> 1024 160<429.45 1094.62>
VStem: 96 192<266.604 528 656 875.489> 1248 192<193.714 320 656 880.61>
LayerCount: 2
Fore
SplineSet
1440 320 m 1
 1440 -0.720860759143 1133.18019475 -22 800 -22 c 0
 337.226708018 -22 96 83.603582635 96 544 c 0
 96 1040.0390633 304.956506224 1184 800 1184 c 0
 1237.89309255 1184 1440 1029.42975798 1440 592 c 1
 1424 528 l 1
 288 528 l 1
 288 167.991260873 439.883097217 128 800 128 c 0
 1018.65971268 128 1248 111.740729795 1248 320 c 1
 1440 320 l 1
1248 656 m 1
 1248 954.947436638 1098.43925838 1024 800 1024 c 0
 464.400590706 1024 288 996.216345563 288 656 c 1
 1248 656 l 1
EndSplineSet
EndChar

StartChar: f
Encoding: 92 102 77
Width: 1056
GlyphClass: 2
Flags: HW
HStem: 0 21G<320 512> 1024 128<128 320 512 1056> 1408 160<564.094 1056>
VStem: 320 192<0 1024 1152 1354.55>
LayerCount: 2
Fore
SplineSet
832 1408 m 2
 601.189518215 1408 512 1394.5858991 512 1162 c 2
 512 1152 l 1
 1056 1152 l 1
 1056 1006 l 5
 512 1006 l 5
 512 0 l 1
 320 0 l 1
 320 1006 l 5
 128 1006 l 5
 128 1152 l 1
 320 1152 l 1
 320 1162 l 2
 320 1496.70297113 495.495207177 1568 833 1568 c 2
 1056 1568 l 1
 1056 1408 l 1
 832 1408 l 2
EndSplineSet
EndChar

StartChar: g
Encoding: 93 103 78
Width: 1632
GlyphClass: 2
Flags: HW
HStem: -421 160<396.237 1170.59> -32 160<437.301 1147.16> 1024 160<437.301 1161.38> 1132 20G<1312 1504>
VStem: 96 192<265.302 886.63> 1312 192<-125.896 128 282.781 872.217 1045 1152>
LayerCount: 2
Fore
SplineSet
1312 577 m 256
 1312 958.307545278 1180.66446687 1024 800 1024 c 0
 412.083439391 1024 288 963.542542537 288 574 c 0
 288 187.024426073 414.465861936 128 800 128 c 0
 1179.21492026 128 1312 197.047696986 1312 577 c 256
800 1184 m 0
 1014.80554534 1184 1229.18120858 1163.31255918 1312 1045 c 1
 1312 1152 l 1
 1504 1152 l 1
 1504 160 l 2
 1504 -305.567218092 1268.19685699 -421 800 -421 c 0
 497.108281834 -421 160 -422.02658292 160 -133 c 1
 352 -133 l 1
 352 -284.911935679 628.811004311 -261 800 -261 c 0
 1152.85642498 -261 1312 -227.27422755 1312 128 c 1
 1235.43034825 -3.26226013787 1021.66420806 -32 800 -32 c 0
 320.61148151 -32 96 95.1000455225 96 574 c 0
 96 1056.89637509 317.109251795 1184 800 1184 c 0
EndSplineSet
EndChar

StartChar: h
Encoding: 94 104 79
Width: 1601
GlyphClass: 2
Flags: HW
HStem: 0 21G<128 320 1280 1472.03> 1024 160<537.832 1139.19> 1516 20G<128 320>
VStem: 128 192<0 884.589 970 1536> 1280 192<0 897.236>
LayerCount: 2
Fore
SplineSet
896 1184 m 0
 1311.55244467 1184 1473 1064.51309824 1473 650 c 2
 1472 0 l 1
 1280 0 l 1
 1280 650 l 2
 1280 963.355521198 1149.55720104 1024 832 1024 c 0
 551.560345184 1024 320 981.432607601 320 714 c 2
 320 0 l 1
 128 0 l 1
 128 1536 l 1
 320 1536 l 1
 320 970 l 1
 394.490626935 1145.0529733 648.621171014 1184 896 1184 c 0
EndSplineSet
EndChar

StartChar: i
Encoding: 95 105 80
Width: 576
GlyphClass: 2
Flags: HW
HStem: 0 21G<192 384> 1132 20G<192 384> 1344 192<192 384>
VStem: 192 192<0 1152 1344 1536>
LayerCount: 2
Fore
SplineSet
192 1152 m 1
 384 1152 l 1
 384 0 l 1
 192 0 l 1
 192 1152 l 1
384 1344 m 1
 192 1344 l 1
 192 1536 l 1
 384 1536 l 1
 384 1344 l 1
EndSplineSet
EndChar

StartChar: j
Encoding: 96 106 81
Width: 672
GlyphClass: 2
Flags: HW
HStem: -384 160<128 263.967> 1132 20G<288 480> 1344 192<288 480>
VStem: 288 192<-202.176 1152 1344 1536>
LayerCount: 2
Fore
SplineSet
128 -224 m 1
 251.418612073 -224 288 -187.424894931 288 -64 c 2
 288 1152 l 1
 480 1152 l 1
 480 -64 l 2
 480 -310.757524339 381.766406715 -384 128 -384 c 1
 128 -224 l 1
480 1344 m 1
 288 1344 l 1
 288 1536 l 1
 480 1536 l 1
 480 1344 l 1
EndSplineSet
EndChar

StartChar: k
Encoding: 97 107 82
Width: 1408
GlyphClass: 2
Flags: HW
HStem: 0 21G<128 320 1093.33 1408> 552 144<320 384> 1132 20G<1057.12 1376> 1516 20G<128 320>
VStem: 128 192<0 552 696 1536> 1088 288<864 1152> 1120 288<0 288>
DStem2: 384 696 560 616 0.835813 0.549014<103.182 838.763> 560 616 384 552 0.809066 -0.587718<0 815.111>
LayerCount: 2
Fore
SplineSet
128 1536 m 1
 320 1536 l 1
 320 696 l 1
 384 696 l 1
 1088 1152 l 1
 1376 1152 l 1
 560 616 l 1
 1408 0 l 1
 1120 0 l 1
 384 552 l 1
 320 552 l 1
 320 0 l 1
 128 0 l 1
 128 1536 l 1
EndSplineSet
EndChar

StartChar: l
Encoding: 98 108 83
Width: 576
GlyphClass: 2
Flags: HW
HStem: 0 21G<192 384> 1516 20G<192 384>
VStem: 192 192<0 1536>
LayerCount: 2
Fore
SplineSet
192 1536 m 1
 384 1536 l 1
 384 0 l 1
 192 0 l 1
 192 1536 l 1
EndSplineSet
EndChar

StartChar: m
Encoding: 99 109 84
Width: 2496
GlyphClass: 2
Flags: HW
HStem: 0 21G<128 320 1152 1344 2176 2368> 1024 160<527.463 1031.72 1538.22 2055.87> 1132 20G<128 320>
VStem: 128 192<0 890.812 970 1152> 1152 192<0 890.125> 2176 192<0 909.164>
CounterMasks: 1 1c
LayerCount: 2
Fore
SplineSet
1792 1024 m 0xdc
 1530.08348501 1024 1344 966.510254631 1344 714 c 2
 1344 0 l 1
 1152 0 l 1
 1152 650 l 2
 1152 941.822670526 1061.51419389 1024 768 1024 c 0xdc
 506.083485009 1024 320 966.510254631 320 714 c 2
 320 0 l 1
 128 0 l 1
 128 1152 l 1
 320 1152 l 1xbc
 320 970 l 1
 373.239602711 1129.71880813 607.934950793 1184 832 1184 c 0
 1068.06947813 1184 1236.6921073 1137.46202513 1304 974 c 1
 1397.13416324 1121.91896515 1602.26513723 1184 1856 1184 c 0
 2249.41444405 1184 2368 1042.52762281 2368 650 c 2
 2368 0 l 1
 2176 0 l 1
 2176 650 l 2
 2176 941.822670526 2085.51419389 1024 1792 1024 c 0xdc
EndSplineSet
EndChar

StartChar: n
Encoding: 100 110 85
Width: 1601
GlyphClass: 2
Flags: HW
HStem: 0 21G<128 320 1280 1472.03> 1024 160<552.906 1137.71> 1132 20G<128 320>
VStem: 128 192<0 880.132 960 1152> 1280 192<0 894.17>
LayerCount: 2
Fore
SplineSet
896 1184 m 0xd8
 1314.9602127 1184 1473 1058.06894801 1473 640 c 2
 1472 0 l 1
 1280 0 l 1
 1280 640 l 2
 1280 958.223910228 1153.94976362 1024 832 1024 c 0xd8
 546.495017867 1024 320 977.099744604 320 704 c 2
 320 0 l 1
 128 0 l 1
 128 1152 l 1
 320 1152 l 1xb8
 320 960 l 1
 395.589739548 1136.37605895 646.541703364 1184 896 1184 c 0xd8
EndSplineSet
EndChar

StartChar: o
Encoding: 101 111 86
Width: 1600
GlyphClass: 2
Flags: HW
HStem: -22 150<437.678 1154.71> 1024 160<437.301 1162.7>
VStem: 96 192<271.35 874.072> 1312 192<285.911 874.072>
LayerCount: 2
Fore
SplineSet
800 -22 m 256
 320.61148151 -22 96 105.100045522 96 584 c 256
 96 1062.39972771 321.143047565 1184 800 1184 c 256
 1278.84658709 1184 1504 1062.42020529 1504 584 c 256
 1504 105.120103047 1279.39841243 -22 800 -22 c 256
800 1024 m 256
 421.832281262 1024 288 962.884954294 288 584 c 0
 288 193.480223291 409.999948235 128 800 128 c 0
 1182.71252513 128 1312 200.670485094 1312 584 c 0
 1312 962.872151276 1178.18224713 1024 800 1024 c 256
EndSplineSet
EndChar

StartChar: p
Encoding: 102 112 87
Width: 1632
GlyphClass: 2
Flags: HW
HStem: -384 21G<128 320> -22 150<474.871 1194.7> 1024 160<476.375 1194.36> 1132 20G<128 320>
VStem: 128 192<-384 128 282.783 868.221 1045 1152> 1344 192<266.878 883.852>
LayerCount: 2
Fore
SplineSet
320 1045 m 1
 397.893168373 1164.83564365 620.24739523 1184 832 1184 c 0
 1311.87791013 1184 1536 1053.22009687 1536 574 c 0
 1536 99.6537166229 1307.33082155 -22 832 -22 c 0
 618.204540368 -22 392.026245429 0.56895039506 320 128 c 1
 320 -384 l 1
 128 -384 l 1
 128 1152 l 1
 320 1152 l 1
 320 1045 l 1
1344 574 m 256
 1344 961.699997092 1218.45773479 1024 832 1024 c 0
 456.062772971 1024 320 954.493011306 320 577 c 0
 320 197.177355781 452.79683377 128 832 128 c 0
 1217.52176395 128 1344 187.010226637 1344 574 c 256
EndSplineSet
EndChar

StartChar: q
Encoding: 103 113 88
Width: 1632
GlyphClass: 2
Flags: HW
HStem: -384 21G<1312 1504> -22 150<437.638 1155.38> 1024 160<425.508 1157.13> 1132 20G<1312 1504>
VStem: 96 192<271.35 894.946> 1312 192<-384 128 286.469 879.342 1035 1152>
LayerCount: 2
Fore
SplineSet
96 584 m 256
 96 1062.39972771 321.143047565 1184 800 1184 c 0
 1017.54795163 1184 1232.76950219 1159.50506798 1312 1035 c 1
 1312 1152 l 1
 1504 1152 l 1
 1504 -384 l 1
 1312 -384 l 1
 1312 128 l 1
 1235.31471168 2.01702632846 1016.53163611 -22 800 -22 c 0
 320.61148151 -22 96 105.100045522 96 584 c 256
1312 587 m 0
 1312 967.486968913 1179.568672 1024 800 1024 c 0
 413.395278517 1024 288 973.184876743 288 584 c 256
 288 192.564623484 409.544226909 128 800 128 c 0
 1183.68316866 128 1312 202.683239891 1312 587 c 0
EndSplineSet
EndChar

StartChar: r
Encoding: 104 114 89
Width: 1280
GlyphClass: 2
Flags: HW
HStem: 0 21G<128 320> 1024 160<506.453 1049.75> 1132 20G<128 320>
VStem: 128 192<0 899.062 969 1152> 1120 160<777 959.071>
LayerCount: 2
Fore
SplineSet
320 969 m 1
 372.036119138 1130.31196933 573.387817848 1184 800 1184 c 0
 1125.90708794 1184 1280 1097.63888755 1280 777 c 1
 1120 777 l 1
 1120 1018.9931415 983.984609808 1024 736 1024 c 0
 479.098720153 1024 320 961.746093637 320 713 c 2
 320 0 l 1
 128 0 l 1
 128 1152 l 1
 320 1152 l 1
 320 969 l 1
EndSplineSet
EndChar

StartChar: s
Encoding: 105 115 90
AltUni2: 00017f.ffffffff.0
Width: 1600
GlyphClass: 2
Flags: HW
HStem: -12 140<393.947 768 972.5 1187.02> 512 160<354.558 609 991 1222.97> 1024 160<381.106 1210.23>
VStem: 128 192<192.846 320 708.733 959.017> 1280 192<200.987 344 398.5 460.044 848 934.933>
LayerCount: 2
Fore
SplineSet
128 860 m 0
 128 499.539023829 439.899140186 525 800 525 c 4
 1021.86613929 525 1280 557.794560114 1280 340 c 0
 1280 105.431233448 1007.68131278 128 768 128 c 0
 549.340287321 128 320 111.740729795 320 320 c 1
 128 320 l 1
 128 5.632629448 440.585257893 -12 768 -12 c 0
 1127.20205372 -12 1472 -11.4012192987 1472 344 c 256
 1472 688.930938509 1149.72738083 685 800 685 c 4
 572.428754737 685 320 632.806377799 320 860 c 0
 320 1059.67430735 617.668049056 1024 832 1024 c 0
 1037.60860885 1024 1280 1041.29335789 1280 848 c 1
 1472 848 l 1
 1472 1164.1656642 1163.96792495 1184 832 1184 c 0
 499.0365475 1184 128 1176.34954951 128 860 c 0
EndSplineSet
EndChar

StartChar: t
Encoding: 106 116 91
Width: 1376
GlyphClass: 2
Flags: HW
HStem: 0 160<555.005 1014.7> 1001 151<64 301 493 1216>
VStem: 301 192<208.57 1001 1152 1408> 1088 160<236.683 512>
LayerCount: 2
Fore
SplineSet
767 160 m 0
 1041.82229901 160 1088 237.933935443 1088 512 c 1
 1248 512 l 1
 1248 144.650932342 1134.22679712 0 768 0 c 0
 442.485014829 0 301 91.1190298872 301 416 c 2
 301 994 l 1
 64 994 l 1
 64 1152 l 1
 301 1152 l 1
 301 1467 l 5
 493 1467 l 5
 493 1152 l 1
 1216 1152 l 1
 1216 994 l 1
 493 994 l 1
 493 416 l 2
 493 195.581258954 549.031937003 160 767 160 c 0
EndSplineSet
EndChar

StartChar: u
Encoding: 107 117 92
Width: 1601
GlyphClass: 2
Flags: HW
HStem: -22 150<463.445 1054.28> 0 21G<1281 1473> 1132 20G<128.969 321 1281 1473>
VStem: 128 193<258.006 1152> 1281 192<0 192 271.868 1152>
LayerCount: 2
Fore
SplineSet
705 -22 m 0
 288.457682975 -22 128 96.5655941233 128 512 c 2
 129 1152 l 1
 321 1152 l 1
 321 512 l 2
 321 193.776089772 447.050236379 128 769 128 c 0
 1054.50498213 128 1281 174.900255396 1281 448 c 2
 1281 1152 l 1
 1473 1152 l 1
 1473 0 l 1
 1281 0 l 1
 1281 192 l 1
 1205.18107818 24.1152445353 964.166614716 -22 705 -22 c 0
EndSplineSet
EndChar

StartChar: v
Encoding: 108 118 93
Width: 1600
GlyphClass: 2
Flags: HW
HStem: 0 128<672 928>
DStem2: 288 1152 64 1152 0.466759 -0.884385<0 1144.59> 800 128 928 0 0.466759 0.884385<0 1144.59>
LayerCount: 2
Fore
SplineSet
672 0 m 1
 928 0 l 1
 1536 1152 l 1
 1312 1152 l 1
 800 128 l 1
 288 1152 l 1
 64 1152 l 1
 672 0 l 1
EndSplineSet
EndChar

StartChar: w
Encoding: 109 119 94
Width: 2240
GlyphClass: 2
Flags: HW
HStem: 944 208<920 1320>
DStem2: 640 144 768 0 0.355995 0.934488<0 918.468> 1216 1152 1120 944 0.352751 -0.935717<160.765 1077.25>
LayerCount: 2
Fore
SplineSet
2176 1152 m 1
 1952 1152 l 1
 1596 144 l 1
 1216 1152 l 1
 1024 1152 l 1
 640 144 l 1
 288 1152 l 1
 64 1152 l 1
 512 0 l 1
 768 0 l 1
 1120 944 l 1
 1472 0 l 1
 1728 0 l 1
 2176 1152 l 1
EndSplineSet
EndChar

StartChar: x
Encoding: 110 120 95
Width: 1628
GlyphClass: 2
Flags: HW
HStem: 482 210<709 919>
VStem: 96 256<0 256> 124 256<896 1152> 1248 256<896 1152> 1276 256<0 256>
DStem2: 96 0 352 0 0.707107 0.707107<181.019 832.265 1013.28 1629.17> 380 1152 124 1152 0.707107 -0.707107<0 615.89 796.909 1448.15>
LayerCount: 2
Fore
SplineSet
1276 0 m 1
 1532 0 l 1
 942 587 l 1
 1504 1152 l 1
 1248 1152 l 1
 819 707 l 1
 380 1152 l 1
 124 1152 l 1
 686 586 l 5
 96 0 l 1
 352 0 l 1
 814 482 l 1
 1276 0 l 1
EndSplineSet
EndChar

StartChar: y
Encoding: 111 121 96
Width: 1568
GlyphClass: 2
Flags: HW
HStem: -384 160<450 598.4>
DStem2: 288 1152 64 1152 0.466759 -0.884385<0 1144.59> 736 0 896 -64 0.448445 0.893811<-224.709 0 143.108 1063.98>
LayerCount: 2
Fore
SplineSet
736 0 m 1
 647.440391632 -177.119216736 560.67218185 -224 288 -224 c 1
 288 -384 l 1
 641.682589054 -384 779.12276171 -297.754476581 896 -64 c 0
 1098.66666667 341.333333333 1301.33333333 746.666666667 1504 1152 c 1
 1280 1152 l 1
 800 128 l 1
 288 1152 l 1
 64 1152 l 1
 672 0 l 1
 736 0 l 1
EndSplineSet
EndChar

StartChar: z
Encoding: 112 122 97
Width: 1472
GlyphClass: 2
Flags: HW
DStem2: 128 160 368 128 0.748762 0.662839<158.492 1303.48>
LayerCount: 2
Fore
SplineSet
192 1152 m 5
 192 1011 l 5
 1104 1011 l 5
 128 160 l 5
 128 0 l 5
 1344 0 l 5
 1344 143 l 5
 382 143 l 5
 1344 992 l 5
 1344 1152 l 5
 192 1152 l 5
EndSplineSet
EndChar

StartChar: braceleft
Encoding: 113 123 98
Width: 960
GlyphClass: 2
Flags: HW
HStem: -64 160<619.244 832> 688 160<128 300.266> 1440 160<619.244 832>
VStem: 322.5 191<199.307 407.5 596 663.545 873.388 940 1128.5 1336.69>
CounterMasks: 1 e0
LayerCount: 2
Fore
SplineSet
128 688 m 1
 266.929813365 688 320 671.363806609 320 536 c 0
 320 138.927682409 429.65987327 -64 832 -64 c 1
 832 96 l 1
 538.511737628 96 512 244.476069039 512 536 c 0
 512 664.410316357 473.342594819 723.328702591 384 768 c 1
 473.352154689 812.676077345 512 871.564932586 512 1000 c 0
 512 1291.51277551 538.503258213 1440 832 1440 c 1
 832 1600 l 1
 428.7316755 1600 320 1400.50395286 320 1000 c 0
 320 866.314133562 265.662119069 848 128 848 c 1
 128 688 l 1
EndSplineSet
EndChar

StartChar: bar
Encoding: 114 124 99
Width: 448
GlyphClass: 2
Flags: HW
VStem: 128 192
LayerCount: 2
Fore
SplineSet
128 -128 m 1
 320 -128 l 1
 320 1600 l 1
 128 1600 l 1
 128 -128 l 1
EndSplineSet
EndChar

StartChar: braceright
Encoding: 115 125 100
Width: 960
GlyphClass: 2
Flags: HW
HStem: -64 160<128 340.756> 688 160<659.734 832> 1440 160<128 340.756>
VStem: 446.5 191<199.307 407.5 596 663.545 873.388 940 1128.5 1336.69>
CounterMasks: 1 e0
LayerCount: 2
Fore
SplineSet
128 -64 m 1
 531.2683245 -64 640 135.496047138 640 536 c 0
 640 671.349604202 693.067031841 688 832 688 c 1
 832 848 l 1
 694.340037484 848 640 866.298842183 640 1000 c 0
 640 1397.0474567 530.266576586 1600 128 1600 c 1
 128 1440 l 1
 421.345623683 1440 448 1291.49256356 448 1000 c 0
 448 871.589683643 486.657405181 812.671297409 576 768 c 1
 486.647845311 723.323922655 448 664.435067414 448 536 c 0
 448 244.51857898 421.355048999 96 128 96 c 1
 128 -64 l 1
EndSplineSet
EndChar

StartChar: asciitilde
Encoding: 116 126 101
Width: 1152
GlyphClass: 2
Flags: HW
HStem: 832 160<611.023 768 796 827.484> 928 160<324.254 356 384 540.977>
VStem: 128 192<832 926.021> 832 192<994.54 1088>
DStem2: 603 1040 467.5 913 0.929609 -0.368547<-161 169.769>
LayerCount: 2
Fore
SplineSet
320 832 m 1
 320 890.713091443 327.233451947 928 384 928 c 0
 529.662921069 928 601.123433729 832 768 832 c 0
 918.559656736 832 1024 932.469234184 1024 1088 c 1
 832 1088 l 1
 832 1029.96488314 824.376792992 992 768 992 c 0
 622.337078931 992 550.876566271 1088 384 1088 c 0
 230.143350861 1088 128 991.012636622 128 832 c 1
 320 832 l 1
EndSplineSet
EndChar

StartChar: cent
Encoding: 119 162 104
Width: 1601
GlyphClass: 2
Flags: HW
HStem: -32 160<451.955 617.5 833 1182.85> 960 160<451.955 617.5 833 1182.85>
VStem: 128 193<240.369 847.631> 1279 194<204.924 384 704 883.076>
LayerCount: 2
Fore
SplineSet
833 1120 m 0
 348.300701805 1120 128 1029.70022121 128 544 c 256
 128 58.3130174494 348.291605628 -32 833 -32 c 0
 1211.34820817 -32 1473 15.2089176627 1473 384 c 1
 1281 384 l 1
 1281 126.923028203 1090.50491585 128 833 128 c 0
 452.779779354 128 321 161.23669677 321 544 c 256
 321 926.743720714 452.766304099 960 833 960 c 0
 1090.50875361 960 1281 961.08094893 1281 704 c 1
 1473 704 l 1
 1473 1069.68509961 1209.64065855 1120 833 1120 c 0
EndSplineSet
EndChar

StartChar: sterling
Encoding: 120 163 105
Width: 1663
GlyphClass: 2
Flags: HW
HStem: 0 160<448 1472> 640 160<64 256 448 1280> 1173 21G<1344 1536> 1409 160<584.523 1266.33>
VStem: 256 192<160 640 800 1289.85> 1344 192<1173 1341.08>
LayerCount: 2
Fore
SplineSet
960 1409 m 0
 561.630621643 1409 448 1359.03756027 448 958 c 2
 448 800 l 1
 1280 800 l 1
 1280 640 l 1
 448 640 l 1
 448 160 l 1
 1472 160 l 1
 1472 0 l 1
 256 0 l 1
 256 640 l 1
 64 640 l 1
 64 800 l 1
 256 800 l 1
 256 958 l 2
 256 1461.46361563 457.503565027 1569 960 1569 c 0
 1308.50512949 1569 1536 1513.87383882 1536 1173 c 1
 1344 1173 l 1
 1344 1402.16312203 1189.63882097 1409 960 1409 c 0
EndSplineSet
EndChar

StartChar: currency
Encoding: 121 164 106
Width: 1280
GlyphClass: 2
Flags: HW
HStem: 96 160<471.792 807.219> 768 160<472.063 807.22>
VStem: 192 192<344.636 680.121> 896 192<345.246 678.619>
DStem2: 196 977 112 880 0.759312 -0.650727<0 197.841 1080.49 1279.44> 112 144 196 47 0.759312 0.650727<0.661664 198.502 1081.69 1280.11>
LayerCount: 2
Fore
SplineSet
934 848 m 1
 859.906285081 899.48885274 761.566193139 928 640 928 c 0
 517.551920036 928 420.473244904 899.752593916 346 848 c 1
 196 977 l 1
 112 880 l 1
 256 756 l 1
 215.467454156 693.239929016 192 614.099612712 192 512 c 0
 192 408.950362092 215.191150044 331.187896706 256 268 c 1
 112 144 l 1
 196 47 l 1
 346 176 l 1
 419.243083763 122.961904862 517.475121419 96 640 96 c 0
 761.034998136 96 859.93839859 123.3530059 933 175 c 1
 1084 47 l 1
 1168 144 l 1
 1023 268 l 1
 1063.79804481 331.171166155 1088 408.963882112 1088 512 c 0
 1088 614.60096122 1064.64026062 693.539609071 1023 756 c 1
 1168 880 l 1
 1084 977 l 1
 934 848 l 1
896 512 m 256
 896 341.98568887 807.382561108 256 640 256 c 256
 471.730780775 256 384 341.018306388 384 512 c 256
 384 682.987276713 471.72203092 768 640 768 c 256
 807.376105119 768 896 682.008164165 896 512 c 256
EndSplineSet
EndChar

StartChar: yen
Encoding: 122 165 107
Width: 2048
GlyphClass: 2
Flags: HW
HStem: 0 768<544 1504> 256 160<416 928 1120 1632> 640 160<416 773 1274 1632> 1516 20G<64 338.333 1709.67 1984>
VStem: 64 256<1280 1536> 928 192<0 256 416 640> 1728 256<1280 1536>
CounterMasks: 1 0e
LayerCount: 2
Fore
SplineSet
416 416 m 1
 928 416 l 1
 928 640 l 1
 416 640 l 1
 416 800 l 1
 773 800 l 1
 64 1536 l 1
 320 1536 l 1
 1024 768 l 1
 1728 1536 l 1
 1984 1536 l 1
 1274 800 l 1
 1632 800 l 1
 1632 640 l 1
 1120 640 l 1
 1120 416 l 1
 1632 416 l 1
 1632 256 l 1
 1120 256 l 1
 1120 0 l 1
 928 0 l 1
 928 256 l 1
 416 256 l 1
 416 416 l 1
EndSplineSet
EndChar

StartChar: brokenbar
Encoding: 123 166 108
Width: 448
GlyphClass: 2
Flags: HW
VStem: 128 192
LayerCount: 2
Fore
SplineSet
128 896 m 1
 320 896 l 1
 320 1600 l 1
 128 1600 l 1
 128 896 l 1
128 -128 m 1
 320 -128 l 1
 320 576 l 1
 128 576 l 1
 128 -128 l 1
EndSplineSet
EndChar

StartChar: section
Encoding: 124 167 109
Width: 1504
GlyphClass: 2
Flags: HW
HStem: -32 160<382.118 672 876.5 1103.62> 480 164<336.475 704 895 1133.23> 800 160<539.448 801 980.5 1162.92> 807.5 167<354.321 796.167> 1312 160<401.38 628.5 833 1122.88>
VStem: 128 193<185.533 320 676.72 822.449 1008.84 1120 1179 1245.19> 1184 192<194.812 260.5 320 432.139 622.134 763.156 1120 1254.47>
DStem2: 394 1437.5 487 1291.5 0.989246 0.146259<-77.7588 412.222> 876.5 133 924.5 -23.5 0.989246 0.146259<-199.331 296.844>
LayerCount: 2
Fore
SplineSet
128 699 m 0
 128 466.562146641 460.305777145 480 704 480 c 0
 904.660586497 480 1184 514.11645387 1184 320 c 0
 1184 101.62981596 897.730882203 128 672 128 c 0
 475.803314013 128 324 128.230794006 324 320 c 1
 132 320 l 1
 132 13.2369337268 357.955436814 -32 672 -32 c 0
 1031.20205372 -32 1376 -31.4012192987 1376 324 c 0
 1376 434.696839273 1352.35599238 504.160475965 1286 551 c 1
 1328.49634291 610.297222665 1374 675.506209966 1374 757 c 0
 1374 956.695296531 1021.47697491 960 800 960 c 0
 599.320155971 960 321 925.824938439 321 1120 c 0
 321 1338.32914841 607.274131889 1312 833 1312 c 0
 1029.19668599 1312 1181 1311.76920599 1181 1120 c 1
 1373 1120 l 1
 1373 1426.76306627 1147.04456319 1472 833 1472 c 0
 473.79794628 1472 129 1471.4012193 129 1116 c 0
 129 1003.94295167 153.609614603 935.165573719 220 887 c 1
 177.577032299 835.697806501 128 775.159234906 128 699 c 0
1153 607 m 1
 1024.6243487 637.009892512 877.646233896 640 704 640 c 0
 566.17381887 640 321 616.369342933 321 733 c 0
 321 767.834545789 339.850962199 800.614985682 352 832 c 1
 479.574643479 802.692311633 626.994078913 800 801 800 c 0
 929.690863622 800 1186 818.459276919 1186 708 c 0
 1186 669.502444064 1169.18045065 639.36090129 1153 607 c 1
EndSplineSet
EndChar

StartChar: dieresis
Encoding: 125 168 110
Width: 1088
GlyphClass: 2
Flags: HW
HStem: 1344 192
LayerCount: 2
Fore
SplineSet
256 1536 m 1
 64 1536 l 1
 64 1344 l 1
 256 1344 l 1
 256 1536 l 1
1024 1536 m 1
 832 1536 l 1
 832 1344 l 1
 1024 1344 l 1
 1024 1536 l 1
EndSplineSet
EndChar

StartChar: copyright
Encoding: 126 169 111
Width: 1920
GlyphClass: 2
Flags: HW
HStem: 64 160<547.151 1372.85> 410 134<686.747 1246.71> 1241 134<686.747 1249> 1504 160<547.151 1372.85>
VStem: 128 192<463.904 616.5 1111.5 1264.1> 448 162<617.466 1167.83> 1312 160<604.069 759 1027 1182.75> 1600 192<463.904 616.5 1111.5 1264.1>
LayerCount: 2
Fore
SplineSet
1792 864 m 256
 1792 1468.56396324 1565.43530349 1664 960 1664 c 256
 354.574292844 1664 128 1468.57897982 128 864 c 256
 128 259.436036755 354.564696514 64 960 64 c 256
 1565.42570716 64 1792 259.421020183 1792 864 c 256
1600 864 m 256
 1600 350.017141298 1474.03271605 224 960 224 c 256
 445.987067065 224 320 349.998134279 320 864 c 256
 320 1377.9828587 445.967283945 1504 960 1504 c 256
 1474.01293294 1504 1600 1378.00186572 1600 864 c 256
959 1375 m 0
 575.592366796 1375 448 1274.51200631 448 893 c 256
 448 510.973703657 575.045298943 410 959 410 c 0
 1268.08767115 410 1472 456.574854485 1472 759 c 1
 1312 759 l 1
 1312 550.552612735 1167.86161956 544 959 544 c 0
 669.421382429 544 610 603.476668236 610 893 c 256
 610 1182.53456401 670.243837019 1241 959 1241 c 0
 1167.72136795 1241 1312 1235.45461008 1312 1027 c 1
 1472 1027 l 1
 1472 1326.34374122 1266.14163039 1375 959 1375 c 0
EndSplineSet
EndChar

StartChar: guillemotleft
Encoding: 128 171 113
Width: 1344
GlyphClass: 2
Flags: HW
VStem: 128 128<512 704> 576 128<512 704>
DStem2: 128 704 256 608 0.816968 0.576683<49.2103 665.877> 256 608 128 512 0.816968 -0.576683<0 616.667> 576 704 704 608 0.816968 0.576683<49.2103 665.877> 704 608 576 512 0.816968 -0.576683<0 616.667>
LayerCount: 2
Fore
SplineSet
768 256 m 1
 672 128 l 1
 128 512 l 1
 128 704 l 1
 672 1088 l 1
 768 960 l 1
 256 608 l 1
 768 256 l 1
1216 256 m 1
 1120 128 l 1
 576 512 l 1
 576 704 l 1
 1120 1088 l 1
 1216 960 l 1
 704 608 l 1
 1216 256 l 1
EndSplineSet
EndChar

StartChar: logicalnot
Encoding: 129 172 114
Width: 1216
GlyphClass: 2
Flags: HW
HStem: 928 160<128 896>
VStem: 896 192<640 928>
LayerCount: 2
Fore
SplineSet
1088 640 m 1
 896 640 l 1
 896 928 l 1
 128 928 l 1
 128 1088 l 1
 1088 1088 l 1
 1088 640 l 1
EndSplineSet
EndChar

StartChar: registered
Encoding: 131 174 115
Width: 1920
GlyphClass: 2
Flags: HW
HStem: 64 160<547.151 1372.85> 800 128<860 1159.51> 1248 128<860 1189.08> 1504 160<547.151 1372.85>
VStem: 128 192<463.904 616.5 1111.5 1264.1> 1244 160<633.5 734.493 977.82 1196.31> 1600 192<463.904 616.5 1111.5 1264.1>
LayerCount: 2
Fore
SplineSet
828 800 m 2
 1093.90756511 800 1244 804.589932633 1244 536 c 2
 1244 384 l 1
 1405 384 l 1
 1405 536 l 2
 1405 744.115252963 1347.39484131 836.575644836 1160 860 c 1
 1308.98717604 869.311698503 1404 937.529564107 1404 1088 c 1
 1400.15201869 1357.35869192 1147.53850744 1376 860 1376 c 2
 573 1376 l 1
 573 384 l 1
 733 384 l 1
 733 800 l 1
 828 800 l 2
1244 1088 m 0
 1244 915.645859603 1043.85247131 928 860 928 c 2
 733 928 l 1
 733 1248 l 1
 860 1248 l 2
 1042.31328166 1248 1244 1258.09497918 1244 1088 c 0
1792 864 m 256
 1792 1468.56396324 1565.43530349 1664 960 1664 c 256
 354.574292844 1664 128 1468.57897982 128 864 c 256
 128 259.436036755 354.564696514 64 960 64 c 256
 1565.42570716 64 1792 259.421020183 1792 864 c 256
1600 864 m 256
 1600 350.017141298 1474.03271605 224 960 224 c 256
 445.987067065 224 320 349.998134279 320 864 c 256
 320 1377.9828587 445.967283945 1504 960 1504 c 256
 1474.01293294 1504 1600 1378.00186572 1600 864 c 256
EndSplineSet
EndChar

StartChar: macron
Encoding: 132 175 116
Width: 1024
GlyphClass: 2
Flags: HW
HStem: 1344 160
LayerCount: 2
Fore
SplineSet
128 1344 m 1
 896 1344 l 1
 896 1504 l 1
 128 1504 l 1
 128 1344 l 1
EndSplineSet
EndChar

StartChar: degree
Encoding: 133 176 117
Width: 1280
GlyphClass: 2
Flags: HW
HStem: 96 160<472.168 807.342> 768 160<472.168 807.342>
VStem: 192 192<344.943 679.057> 896 192<345.553 678.447>
LayerCount: 2
Fore
SplineSet
1088 512 m 256
 1088 788.650949549 914.936642087 928 640 928 c 256
 365.065792405 928 192 788.64239338 192 512 c 256
 192 235.349050451 365.063357913 96 640 96 c 256
 914.934207595 96 1088 235.35760662 1088 512 c 256
896 512 m 256
 896 341.98568887 807.382561108 256 640 256 c 256
 471.730780775 256 384 341.018306388 384 512 c 256
 384 682.987276713 471.72203092 768 640 768 c 256
 807.376105119 768 896 682.008164165 896 512 c 256
EndSplineSet
EndChar

StartChar: plusminus
Encoding: 134 177 118
Width: 1344
GlyphClass: 2
Flags: HW
HStem: 800 160<128 576 768 1216>
VStem: 576 192<320 800 960 1408>
LayerCount: 2
Fore
SplineSet
128 960 m 1
 576 960 l 1
 576 1408 l 1
 768 1408 l 1
 768 960 l 1
 1216 960 l 1
 1216 800 l 1
 768 800 l 1
 768 320 l 1
 576 320 l 1
 576 800 l 1
 128 800 l 1
 128 960 l 1
EndSplineSet
EndChar

StartChar: uni00B2
Encoding: 135 178 119
Width: 1344
GlyphClass: 2
Flags: HW
HStem: 1408 160<341.687 419.5 842.5 986.423>
VStem: 128 192<672 759.267 1248 1379.79> 1024 192<1091.58 1368.69>
DStem2: 448 962 505.5 805.5 0.980581 0.196116<-157.486 569.809>
LayerCount: 2
Fore
SplineSet
673 1408 m 0
 862.816350228 1408 1024 1428.12127535 1024 1242 c 256
 1024 1091.8602856 958.91704846 1059.44029209 834 1035 c 2
 448 962 l 2
 258.146109806 925.755166417 128 886.762358663 128 672 c 2
 128 448 l 1
 1186 448 l 1
 1186 608 l 1
 320 608 l 1
 320 811.057752612 467.220394882 798.444078976 640 833 c 2
 898 884 l 2
 1102.9677999 923.671187078 1216 1001.92931186 1216 1243 c 0
 1216 1563.61769284 994.066416483 1568 673 1568 c 0
 360.671533312 1568 128 1570.78257946 128 1248 c 1
 320 1248 l 1
 320 1440.40980244 482.442131298 1408 673 1408 c 0
EndSplineSet
EndChar

StartChar: uni00B3
Encoding: 136 179 120
Width: 1471
GlyphClass: 2
Flags: HW
HStem: 416 160<333.841 455 957 1117.49> 896 160<959 1117.91> 1369.5 162<337.596 455 1073.5 1129.5>
VStem: 128 192<598.803 703 1218 1348.05> 1150 193<626.277 866.688 1089.3 1135.5 1217 1317.96>
LayerCount: 2
Fore
SplineSet
1150 1217 m 0
 1150 1088.70872765 1086.97825714 1056 959 1056 c 2
 768 1056 l 1
 768 896 l 1
 959 896 l 2
 1090.00294861 896 1150 867.853134485 1150 734 c 0
 1150 542.981379785 965.505000697 576 769 576 c 0
 586.484416272 576 320 525.042799386 320 703 c 1
 128 703 l 1
 128 371.309789833 440.250864881 416 769 416 c 0
 1094.88050833 416 1343 408.87795878 1343 733 c 0
 1343 886.481246188 1291.23015316 932.192557054 1183 976 c 1
 1292.66691936 1009.94452266 1343 1073.87881649 1343 1218 c 0
 1343 1553.53211521 1101.2920271 1536 769 1536 c 0
 433.999193099 1536 128 1585.53081341 128 1218 c 1
 320 1218 l 1
 320 1429.6077434 558.014985824 1376 769 1376 c 0
 973.645951159 1376 1150 1421.68402712 1150 1217 c 0
EndSplineSet
EndChar

StartChar: acute
Encoding: 137 180 121
Width: 960
GlyphClass: 2
Flags: HW
LayerCount: 2
Fore
SplineSet
832 1664 m 1
 704 1856 l 1
 128 1376 l 1
 192 1280 l 1
 832 1664 l 1
EndSplineSet
EndChar

StartChar: uni00B5
Encoding: 138 181 122
Width: 1601
GlyphClass: 2
Flags: HW
HStem: -384 21G<129 321> -32 160<462.754 1042.41> 0 21G<1281 1473>
VStem: 128 193<-384 33 257.83 1088> 1281 192<0 191 271.868 1088>
LayerCount: 2
Fore
SplineSet
705 -32 m 0
 546.459684221 -32 420.819839709 -16.1420749335 321 33 c 1
 321 -384 l 1
 129 -384 l 1
 129 -226 129 -226 129 -103.5 c 128
 129 38.3892026124 128 164.686938743 128 293.5 c 130
 128 580 l 130
 128 681.15412294 129 778.920486008 129 886.5 c 128
 129 975 129 975 129 1088 c 1
 321 1088 l 1
 321 512 l 2
 321 193.776089772 447.050236379 128 769 128 c 0
 1054.50498213 128 1281 174.900255396 1281 448 c 2
 1281 1088 l 1
 1473 1088 l 1
 1473 0 l 1
 1281 0 l 1
 1281 191 l 1
 1196.74819207 22.496384133 967.843521916 -32 705 -32 c 0
EndSplineSet
EndChar

StartChar: paragraph
Encoding: 139 182 123
Width: 1984
GlyphClass: 2
Flags: HW
VStem: 128 960<814.583 1346.26>
LayerCount: 2
Fore
SplineSet
128 1088 m 0
 128 654.607350478 398.76047109 608 833 608 c 2
 896 608 l 1
 896 0 l 1
 1088 0 l 1
 1088 1376 l 1
 1472 1376 l 1
 1472 0 l 1
 1664 0 l 1
 1664 1376 l 1
 1856 1376 l 1
 1856 1536 l 1
 833 1536 l 2
 413.356393911 1536 128 1506.66702779 128 1088 c 0
EndSplineSet
EndChar

StartChar: periodcentered
Encoding: 140 183 124
Width: 448
GlyphClass: 2
Flags: HW
HStem: 704 192
VStem: 128 192
LayerCount: 2
Fore
SplineSet
320 896 m 1
 128 896 l 1
 128 704 l 1
 320 704 l 1
 320 896 l 1
EndSplineSet
EndChar

StartChar: cedilla
Encoding: 141 184 125
Width: 640
GlyphClass: 2
Flags: HW
HStem: -544 160<128 308.647>
VStem: 128 128<-128 64> 320 192<-370.345 -250.926>
LayerCount: 2
Fore
SplineSet
256 -128 m 1
 386.236846612 -128 512 -158.237098532 512 -288 c 0
 512 -502.104083825 340.141899259 -544 128 -544 c 1
 128 -384 l 1
 231.71180608 -384 320 -391.010423936 320 -288 c 0
 320 -217.383173413 211.101048974 -224 128 -224 c 1
 128 64 l 1
 256 64 l 1
 256 -128 l 1
EndSplineSet
EndChar

StartChar: uni00B9
Encoding: 142 185 126
Width: 896
GlyphClass: 2
Flags: HW
DStem2: 64 1120 160 992 0.732793 0.680451<0 549.386>
LayerCount: 2
Fore
SplineSet
64 1120 m 1
 160 992 l 1
 576 1376 l 1
 576 448 l 1
 768 448 l 1
 768 1536 l 1
 512 1536 l 1
 64 1120 l 1
EndSplineSet
EndChar

StartChar: ordmasculine
Encoding: 143 186 127
Width: 1664
GlyphClass: 2
Flags: HW
HStem: 385 160<460.879 1199.14> 1377 160<464.86 1199.14>
VStem: 128 192<674.069 1233.34> 1344 192<688.663 1233.34>
LayerCount: 2
Fore
SplineSet
832 385 m 256
 364.983995433 385 128 495.884541923 128 961 c 256
 128 1426.09718489 364.978532115 1537 832 1537 c 256
 1299.01600457 1537 1536 1426.11545808 1536 961 c 256
 1536 495.902815111 1299.02146789 385 832 385 c 256
832 1377 m 256
 465.014765426 1377 320 1329.6395116 320 961 c 0
 320 588.585102688 461.436975424 545 832 545 c 0
 1198.98523457 545 1344 592.360488402 1344 961 c 256
 1344 1329.61580912 1199.00761045 1377 832 1377 c 256
EndSplineSet
EndChar

StartChar: guillemotright
Encoding: 144 187 128
Width: 1344
GlyphClass: 2
Flags: HW
VStem: 640 128<512 704> 1088 128<512 704>
DStem2: 224 1088 128 960 0.816968 -0.576683<0 616.667> 128 256 224 128 0.816968 0.576683<4.61347 621.28> 672 1088 576 960 0.816968 -0.576683<0 616.667> 576 256 672 128 0.816968 0.576683<4.61347 621.28>
LayerCount: 2
Fore
SplineSet
640 608 m 1
 128 960 l 1
 224 1088 l 1
 768 704 l 1
 768 512 l 1
 224 128 l 1
 128 256 l 1
 640 608 l 1
1088 608 m 1
 576 960 l 1
 672 1088 l 1
 1216 704 l 1
 1216 512 l 1
 672 128 l 1
 576 256 l 1
 1088 608 l 1
EndSplineSet
EndChar

StartChar: AE
Encoding: 155 198 139
Width: 3072
GlyphClass: 2
Flags: HW
HStem: 0 160<1664 2944> 352 160<704 1472> 704 160<1664 2880> 1376 160<1664 2944>
VStem: 0 256<0 256> 1472 192<160 352 512 704 864 1376>
DStem2: 0 0 256 0 0.675725 0.737154<172.986 652.75 853.133 1774.01>
LayerCount: 2
Fore
SplineSet
1472 0 m 1
 1472 352 l 1
 582 352 l 1
 256 0 l 1
 0 0 l 1
 1408 1536 l 1
 2944 1536 l 1
 2944 1376 l 1
 1664 1376 l 1
 1664 864 l 1
 2880 864 l 1
 2880 704 l 1
 1664 704 l 1
 1664 160 l 1
 2944 160 l 1
 2944 0 l 1
 1472 0 l 1
1472 512 m 1
 1472 1376 l 1
 704 512 l 1
 1472 512 l 1
EndSplineSet
EndChar

StartChar: Ccedilla
Encoding: 156 199 140
Width: 2111
GlyphClass: 2
Flags: HW
HStem: -544 160<959 1139.65> -32 160<456.678 959 1087 1658.06> 1408 160<456.678 1657.27>
VStem: 128 192<265.621 1272.77> 959 128<-128 -32> 1151 192<-370.345 -250.926> 1791 192<250.36 512 1056 1284.25>
LayerCount: 2
Fore
SplineSet
1087 -128 m 1
 1217.23684661 -128 1343 -158.237098532 1343 -288 c 0
 1343 -502.104083825 1171.14189926 -544 959 -544 c 1
 959 -384 l 1
 1062.71180608 -384 1151 -391.010423936 1151 -288 c 0
 1151 -217.383173413 1042.10104897 -224 959 -224 c 1
 959 -32 l 1
 831 -32 l 2
 233.101170931 -32 128 163.310599215 128 768 c 256
 128 1357.72701902 227.063687995 1568 831 1568 c 2
 1280 1568 l 2
 1716.06347471 1568 1983 1492.39066213 1983 1056 c 1
 1791 1056 l 1
 1791 1387.61698989 1612.46814005 1408 1280 1408 c 2
 831 1408 l 2
 339.789845684 1408 320 1268.46261766 320 768 c 256
 320 296.297337182 316.304706987 128 831 128 c 2
 1280 128 l 2
 1632.37558928 128 1791 157.881631428 1791 512 c 1
 1983 512 l 1
 1983 58.0599475972 1735.07994395 -32 1280 -32 c 2
 1087 -32 l 1
 1087 -128 l 1
EndSplineSet
EndChar

StartChar: Eth
Encoding: 165 208 149
Width: 2112
GlyphClass: 2
Flags: HW
HStem: 0 160<1279 1659.97> 1376 160<1279 1659.97>
VStem: 1792 192<292.666 532.5 1003.5 1243.33>
LayerCount: 2
Fore
SplineSet
0 704 m 1
 128 704 l 1
 128 0 l 1
 1279 0 l 2
 1865.3560203 0 1984 175.05265074 1984 768 c 256
 1984 1347.76198452 1870.1239005 1536 1279 1536 c 2
 128 1536 l 1
 128 864 l 1
 0 864 l 1
 0 704 l 1
320 160 m 1
 320 704 l 1
 768 704 l 1
 768 864 l 1
 320 864 l 1
 320 1376 l 1
 1279 1376 l 2
 1757.51098556 1376 1792 1257.33673062 1792 768 c 256
 1792 304.868350421 1780.9307207 160 1279 160 c 2
 320 160 l 1
EndSplineSet
EndChar

StartChar: multiply
Encoding: 172 215 156
Width: 1344
GlyphClass: 2
Flags: HW
HStem: 728 272<536 808>
VStem: 536 272<728 1000>
DStem2: 355 1317 219 1181 0.707107 -0.707107<0 448.306 640.639 1088.94> 219 547 355 411 0.707107 0.707107<0 448.306 640.639 1088.94>
LayerCount: 2
Fore
SplineSet
1125 1181 m 1
 989 1317 l 1
 672 1000 l 1
 355 1317 l 1
 219 1181 l 1
 536 864 l 1
 219 547 l 1
 355 411 l 1
 672 728 l 1
 989 411 l 1
 1125 547 l 1
 808 864 l 1
 1125 1181 l 1
EndSplineSet
EndChar

StartChar: Oslash
Encoding: 173 216 157
Width: 2241
GlyphClass: 2
Flags: HW
HStem: -32 160<457.463 769 1019 1784.32> 1408 160<457.678 1349>
VStem: 129 192<265.621 1272.77> 1921 192<265.621 1270.38>
DStem2: 704 -192 864 -256 0.373968 0.927441<0.478679 173.626 414.581 1725.12 1959.38 2139.22> 1596 1561 1625 1400 0.993454 -0.114233<0 260.601>
LayerCount: 2
Fore
SplineSet
769 -31 m 1
 211.025984005 -18.6005774223 129 197.853395836 129 768 c 256
 129 1357.72701902 228.063687995 1568 832 1568 c 0
 1026 1568 1220 1568 1414 1568 c 1
 1504 1792 l 1
 1664 1728 l 1
 1596 1561 l 1
 2064.0494369 1514.19505631 2113 1279.59931831 2113 768 c 256
 2113 178.20901965 2012.85307456 -32 1410 -32 c 2
 954 -32 l 1
 864 -256 l 1
 704 -192 l 1
 769 -31 l 1
832 1408 m 2
 341.2261117 1408 321 1268.39034363 321 768 c 256
 321 296.297337182 317.304706987 128 832 128 c 2
 833 128 l 1
 1349 1408 l 1
 832 1408 l 2
1410 128 m 2
 1899.89345782 128 1921 269.087538518 1921 768 c 256
 1921 1167.8071668 1951.67825897 1389.29286964 1534 1406 c 1
 1019 128 l 1
 1410 128 l 2
EndSplineSet
EndChar

StartChar: Thorn
Encoding: 179 222 163
Width: 1920
GlyphClass: 2
Flags: HW
HStem: 416 160<1151 1581.72> 1184 160<1282 1595.19>
VStem: 1664 192<649.524 775.5 1008 1122.55>
LayerCount: 2
Fore
SplineSet
1856 896 m 0
 1856 1298.90573745 1682.68427818 1344 1282 1344 c 2
 320 1344 l 1
 320 1536 l 1
 128 1536 l 1
 128 0 l 1
 320 0 l 1
 320 416 l 1
 1151 416 l 2
 1604.36688774 416 1856 441.0245119 1856 896 c 0
320 1184 m 1
 1151 1184 l 2
 1459.3567629 1184 1664 1236.71535329 1664 896 c 0
 1664 559.614453862 1493.05145697 576 1151 576 c 2
 320 576 l 1
 320 1184 l 1
EndSplineSet
EndChar

StartChar: germandbls
Encoding: 180 223 164
Width: 2048
GlyphClass: 2
Flags: HW
HStem: 0 160<1279 1627.44> 736 160<1215 1521.87> 1376 160<420.562 769 1216 1518.93>
VStem: 128 192<1180.5 1284.16> 1600 192<969.52 1061 1174 1303.8> 1728 192<251.837 355 478 659.089>
LayerCount: 2
Fore
SplineSet
1792 1174 m 0
 1792 1466.13399179 1580.00054853 1536 1280 1536 c 2
 769 1536 l 2
 351.833673164 1536 128 1474.67623625 128 1058 c 2
 128 -128 l 1
 320 -128 l 1
 320 1058 l 2
 320 1386.02170843 508.341302984 1376 833 1376 c 2
 1216 1376 l 2
 1415.68065942 1376 1600 1369.78370387 1600 1174 c 0
 1600 912.617969087 1478.71079511 896 1215 896 c 2
 512 896 l 1
 512 736 l 1
 1215 736 l 2
 1496.99046645 736 1728 761.864707843 1728 478 c 0
 1728 149.905819826 1539.676552 160 1215 160 c 2
 512 160 l 1
 512 0 l 1
 1279 0 l 2
 1696.16632684 0 1920 61.3237637539 1920 478 c 0
 1920 692.927996759 1799.08725622 820.939596876 1600 832 c 1
 1744.76929223 845.404564095 1792 1008.45339995 1792 1174 c 0
EndSplineSet
EndChar

StartChar: ae
Encoding: 187 230 171
Width: 2752
GlyphClass: 2
Flags: HW
HStem: -36 164<390.033 1157.01 1612.17 2358.05> 496 163<368.307 1156.01> 512 128<1472 2432> 960 160<458.93 1153.64 1599.63 2292.8>
VStem: 128 192<207.069 430.943> 192 192<768 893.36> 1280 192<259.934 400.45 640 830.599> 2432 192<192.846 320 640 835.888>
LayerCount: 2
Fore
SplineSet
2624 320 m 1
 2624 -6.587076441 2322.5622642 -32 1984 -32 c 0
 1720.15177189 -32 1495.99131725 -1.14271441758 1382 145 c 1
 1277.99739675 7.56798855898 1048.67089157 -36 802 -36 c 0
 479.839631382 -36 128 -12.9381905141 128 293 c 0
 128 646.861827732 416.288103925 659 769 659 c 0
 958.287053096 659 1199.73443826 647.676350586 1280 544 c 1
 1280 887.923715402 1177.44581477 960 834 960 c 0
 615.31301149 960 384 976.103649455 384 768 c 1
 192 768 l 1
 192 1094.92754677 495.198632798 1120 834 1120 c 0
 1112.61795377 1120 1285.89741275 1078.08911268 1382 896 c 1
 1473.76627523 1090.32858283 1696.36999144 1120 1984 1120 c 0
 2403.90611206 1120 2624 994.698751395 2624 576 c 1
 2608 512 l 1
 1472 512 l 1
 1472 486 l 1
 1477.3895712 154.541371426 1647.12160894 128 1984 128 c 0
 2202.65971268 128 2432 111.740729795 2432 320 c 1
 2624 320 l 1
320 320 m 256
 320 94.672812848 591.534084921 128 834 128 c 0
 1035.28042195 128 1280 133.115061403 1280 320 c 256
 1280 507.771352867 977.213945629 496 770 496 c 256
 548.559278151 496 320 530.020617183 320 320 c 256
2432 640 m 1
 2432 915.262503648 2261.59202886 960 1984 960 c 0
 1670.52312494 960 1472 954.298979244 1472 640 c 1
 2432 640 l 1
EndSplineSet
EndChar

StartChar: ccedilla
Encoding: 188 231 172
Width: 1601
GlyphClass: 2
Flags: HW
HStem: -544 160<704 884.647> -32 160<451.955 617.5 833 1182.85> 960 160<451.955 617.5 833 1182.85>
VStem: 128 193<240.369 847.631> 896 192<-370.345 -250.926> 1279 194<204.924 384 704 883.076>
LayerCount: 2
Fore
SplineSet
896 -288 m 0
 896 -391.00979483 807.706767664 -384 704 -384 c 1
 704 -544 l 1
 915.904736581 -544 1088 -501.452984834 1088 -288 c 0
 1088 -158.23394076 962.234717481 -128 832 -128 c 1
 832 -32 l 1
 833 -32 l 2
 1211.34820817 -32 1473 15.2089176627 1473 384 c 1
 1281 384 l 1
 1281 126.923028203 1090.50491585 128 833 128 c 0
 452.779779354 128 321 161.23669677 321 544 c 256
 321 926.743720714 452.766304099 960 833 960 c 0
 1090.50875361 960 1281 961.08094893 1281 704 c 1
 1473 704 l 1
 1473 1069.68509961 1209.64065855 1120 833 1120 c 0
 348.300701805 1120 128 1029.70022121 128 544 c 128
 128 111.515423127 289.885254369 -10.4575487031 704 -29 c 1
 704 -224 l 1
 787.134009131 -224 896 -217.397389714 896 -288 c 0
EndSplineSet
EndChar

StartChar: eth
Encoding: 197 240 181
Width: 1984
GlyphClass: 2
Flags: HW
HStem: -32 160<444.68 831 1152 1516.35> 768 160<444.68 831 1277 1534.95> 1408 160<545.17 752 1024 1426.1>
VStem: 128 192<232.423 661.677> 193 159<1197 1282.58> 1664 188.5<260.53 676.104 832 1132.36>
DStem2: 1281 1146 1324 1026 0.943372 0.331735<0.756771 316.621 501.922 768.31>
LayerCount: 2
Fore
SplineSet
352 1120 m 1
 352 1420.88570857 712.613835998 1408 1024 1408 c 0
 1272.01267545 1408 1479.55752908 1399.40141552 1579 1253 c 1
 1281 1146 l 1
 1324 1026 l 1
 1631 1136 l 1
 1653 1058.66666667 1664 957.333333333 1664 832 c 1
 1478.38853996 946.222436946 1133.03660024 928 831 928 c 0
 405.955278679 928 128 860.37663059 128 448 c 256
 128 35.6453616188 405.982073609 -32 831 -32 c 2
 1152 -32 l 2
 1749.51773747 -32 1856 163.874338353 1856 768 c 0
 1856 935.696680057 1840.83012081 1076.91999159 1796 1196 c 1
 2047 1286 l 1
 2004 1406 l 1
 1739 1311 l 1
 1607.08407911 1507.40814889 1356.89371692 1568 1024 1568 c 0
 589.164248765 1568 193 1550.99451676 193 1120 c 1
 352 1120 l 1
320 448 m 256
 320 761.693830783 518.568310554 768 831 768 c 0
 1171.98861897 768 1664 843.500491625 1664 512 c 0
 1664 165.11163447 1501.91510584 128 1152 128 c 2
 831 128 l 2
 518.108265155 128 320 133.461166353 320 448 c 256
EndSplineSet
EndChar

StartChar: divide
Encoding: 204 247 188
Width: 1280
GlyphClass: 2
Flags: HW
LayerCount: 2
Fore
SplineSet
128 512 m 1
 1152 512 l 1
 1152 672 l 1
 128 672 l 1
 128 512 l 1
768 960 m 1
 576 960 l 1
 576 768 l 1
 768 768 l 1
 768 960 l 1
768 384 m 1
 576 384 l 1
 576 192 l 1
 768 192 l 1
 768 384 l 1
EndSplineSet
EndChar

StartChar: oslash
Encoding: 205 248 189
Width: 1664
GlyphClass: 2
Flags: HW
HStem: -32 160<753.79 1198.65> 960 160<465.346 907.982>
VStem: 128 192<257.069 816.337> 1344 192<271.663 816.337>
DStem2: 448 -160 608 -224 0.38176 0.924261<1.92889 166.387 382.624 1210.62 1427.78 1592.62>
LayerCount: 2
Fore
SplineSet
506 -5 m 0
 235.762031879 49.4509338752 128 217.800120087 128 544 c 256
 128 1009.09718489 364.978532115 1120 832 1120 c 0
 882.666666667 1120 930.333333333 1118.33333333 975 1115 c 1
 1056 1312 l 1
 1216 1248 l 1
 1152 1094 l 1
 1154 1093.33333333 1156 1093 1158 1093 c 0
 1428.23796812 1038.54906612 1536 870.199879913 1536 544 c 256
 1536 78.9028151105 1299.02146789 -32 832 -32 c 0
 781.333333333 -32 733.666666667 -30.3333333333 689 -27 c 1
 608 -224 l 1
 448 -160 l 1
 511 -6 l 1
 509.666666667 -5.33333333333 508 -5 506 -5 c 0
832 960 m 0
 465.014765426 960 320 912.639511598 320 544 c 0
 320 295.819195745 359.925293185 178.113073693 572 141 c 1
 910 959 l 1
 885.333333333 959.666666667 859.333333333 960 832 960 c 0
832 128 m 0
 1198.98523457 128 1344 175.360488402 1344 544 c 256
 1344 785.537109584 1296.06858214 917.385779236 1091 946 c 1
 753 128 l 1
 791 128 791 128 832 128 c 0
EndSplineSet
EndChar

StartChar: thorn
Encoding: 211 254 195
Width: 1600
GlyphClass: 2
Flags: HW
HStem: -32 160<489.015 681.5 832 1202.59> 960 160<489.015 681.5 832 1202.59>
VStem: 128 192<272.398 817.725> 1344 192<254.71 833.29>
LayerCount: 2
Fore
SplineSet
1536 544 m 256
 1536 1009.09718489 1299.02146789 1120 832 1120 c 0
 623.617592816 1120 393.023222191 1089.52087106 320 961 c 1
 320 1536 l 1
 128 1536 l 1
 128 -384 l 1
 320 -384 l 1
 320 128 l 1
 392.042646665 -1.67676399752 623.480600869 -32 832 -32 c 0
 1299.01600457 -32 1536 78.8845419227 1536 544 c 256
320 547 m 0
 320 910.573918767 469.957025695 960 832 960 c 0
 1202.94384498 960 1344 917.304048937 1344 544 c 256
 1344 170.711598645 1202.95541803 128 832 128 c 0
 466.730795532 128 320 180.204322675 320 547 c 0
EndSplineSet
EndChar

StartChar: dcroat
Encoding: 230 273 208
Width: 1664
GlyphClass: 2
Flags: HW
HStem: -32 160<461.415 1176.26> 0 21G<1344 1536> 960 160<461.415 1174.98> 1249 160<896 1344 1536 1664> 1516 20G<1344 1536>
VStem: 128 192<254.71 833.29> 1344 192<0 127 270.275 815.602 960 1249 1409 1536>
LayerCount: 2
Fore
SplineSet
832 1120 m 0
 1040.54740847 1120 1271.94830256 1089.6930554 1344 960 c 1
 1344 1249 l 1
 896 1249 l 1
 896 1409 l 1
 1344 1409 l 1
 1344 1536 l 1
 1536 1536 l 1
 1536 1409 l 1
 1664 1409 l 1
 1664 1249 l 1
 1536 1249 l 1
 1536 0 l 1
 1344 0 l 1
 1344 127 l 1
 1271.90499067 -2.77101679931 1040.79519026 -32 832 -32 c 0
 364.983995433 -32 128 78.8845419227 128 544 c 256
 128 1009.09718489 364.978532115 1120 832 1120 c 0
320 544 m 256
 320 170.711598645 461.044581966 128 832 128 c 0
 1194.03133849 128 1344 177.412889536 1344 541 c 0
 1344 907.782772876 1197.28113697 960 832 960 c 0
 461.056155021 960 320 917.304048937 320 544 c 256
EndSplineSet
EndChar

StartChar: dotlessi
Encoding: 254 305 235
Width: 448
GlyphClass: 2
Flags: HW
VStem: 128 192
LayerCount: 2
Fore
SplineSet
128 0 m 1
 320 0 l 1
 320 1088 l 1
 128 1088 l 1
 128 0 l 1
EndSplineSet
EndChar

StartChar: kgreenlandic
Encoding: 261 312 242
Width: 1408
GlyphClass: 2
Flags: HW
VStem: 1088 288<800 1088> 1120 288<0 288>
DStem2: 384 656 560 576 0.847064 0.531491<106.564 825.937> 560 576 384 512 0.827217 -0.561883<0 786.886>
LayerCount: 2
Fore
SplineSet
128 0 m 1
 320 0 l 1
 320 512 l 1
 384 512 l 1
 1120 0 l 1
 1408 0 l 1
 560 576 l 1
 1376 1088 l 1
 1088 1088 l 1
 384 656 l 1
 320 656 l 1
 320 1536 l 1
 128 1536 l 1
 128 0 l 1
EndSplineSet
EndChar

StartChar: Lslash
Encoding: 270 321 251
Width: 1664
GlyphClass: 2
Flags: HW
HStem: 768 160<64 224> 928 160<608 768>
DStem2: 64 928 64 768 0.975133 0.221621<0 686.494>
LayerCount: 2
Fore
SplineSet
64 768 m 1
 768 928 l 1
 768 1088 l 1
 64 928 l 1
 64 768 l 1
1600 0 m 1
 1600 160 l 1
 384 160 l 1
 384 1536 l 1
 192 1536 l 1
 192 0 l 1
 1600 0 l 1
EndSplineSet
EndChar

StartChar: lslash
Encoding: 271 322 252
Width: 512
GlyphClass: 2
Flags: HW
HStem: 768 160<0 160> 928 160<416 576>
VStem: 0 576
DStem2: 0 928 0 768 0.963518 0.267644<0 554.986>
LayerCount: 2
Fore
SplineSet
0 768 m 1
 576 928 l 1
 576 1088 l 1
 0 928 l 1
 0 768 l 1
128 0 m 1
 320 0 l 1
 320 1536 l 1
 128 1536 l 1
 128 0 l 1
EndSplineSet
EndChar

StartChar: OE
Encoding: 284 338 265
Width: 3520
GlyphClass: 2
Flags: HW
HStem: -32 160<456.678 1780.63> 0 160<1273.53 1830.5 2112 3456> 704 160<2112 3392> 1376 160<1273.53 1830.5 2112 3456> 1404 160<450.102 1791.01>
VStem: 128 192<265.621 1272.77> 1920 192<264.871 704 864 1271.13>
LayerCount: 2
Fore
SplineSet
1409 1564 m 1
 1625.67081117 1568.6847743 1796.50234156 1547.99855904 1920 1472 c 1
 1920 1536 l 1
 3456 1536 l 1
 3456 1376 l 1
 2112 1376 l 1
 2112 864 l 1
 3392 864 l 1
 3392 704 l 1
 2112 704 l 1
 2112 160 l 1
 3456 160 l 1
 3456 0 l 1
 1920 0 l 1
 1920 64 l 1
 1796.46235146 -12.023168335 1624.72709414 -32 1409 -32 c 2
 831 -32 l 2
 233.101170931 -32 128 163.310599215 128 768 c 256
 128 1361.08890058 228.247110542 1577.69892931 831 1564 c 1
 1409 1564 l 1
831 1404 m 1
 336.457516719 1419.4544526 320 1260.84235448 320 768 c 256
 320 296.297337182 316.304706987 128 831 128 c 2
 1409 128 l 2
 1898.89345782 128 1920 269.087538518 1920 768 c 256
 1920 1241.34461568 1926.52146142 1404 1409 1404 c 2
 831 1404 l 1
EndSplineSet
EndChar

StartChar: oe
Encoding: 285 339 266
Width: 2816
GlyphClass: 2
Flags: HW
HStem: -32 160<460.879 1172.08 1707.81 2422.24> 960 160<464.86 1173.93 1698.22 2357>
VStem: 128 192<257.069 816.337> 1344 192<271.826 512 640 816.668> 2496 192<192.846 320 640 835.888>
LayerCount: 2
Fore
SplineSet
832 1120 m 0
 364.983995433 1120 128 1009.11545808 128 544 c 256
 128 78.9028151105 364.978532115 -32 832 -32 c 0
 1085.66854646 -32 1357.03669219 26.0733843763 1440 192 c 1
 1523.0504456 25.8991088018 1794.12637437 -32 2048 -32 c 0
 2388.17792315 -32 2688 -9.87077322111 2688 320 c 1
 2496 320 l 1
 2496 111.725184561 2266.61547115 128 2048 128 c 0
 1698.08656337 128 1536 159.639136629 1536 512 c 1
 2672 512 l 1
 2688 576 l 1
 2688 992.775365427 2468.10498129 1120 2048 1120 c 0
 1818.20870132 1120 1484.01979002 1072.07916007 1440 896 c 1
 1395.11607193 1068.05505761 1059.55603467 1120 832 1120 c 0
832 128 m 0
 461.448352153 128 320 171.569268947 320 544 c 0
 320 912.615809122 464.992389552 960 832 960 c 256
 1198.98523457 960 1344 912.639511598 1344 544 c 256
 1344 175.384190878 1199.00761045 128 832 128 c 0
1536 640 m 1
 1536 951.956615123 1733.8114696 960 2048 960 c 0
 2325.66637479 960 2496 915.977943248 2496 640 c 1
 1536 640 l 1
EndSplineSet
EndChar

StartChar: scedilla
Encoding: 295 351 278
Width: 1600
GlyphClass: 2
Flags: HW
HStem: -619 160<704 884.647> -11 139<393.947 704 832 1187.02> 512 160<354.558 1222.97> 1024 160<381.106 1210.23>
VStem: 128 192<192.846 320 708.733 959.017> 704 128<-203 -11> 896 192<-445.345 -325.926> 1280 192<200.987 460.044 848 934.933>
LayerCount: 2
Fore
SplineSet
832 -203 m 1
 962.236846612 -203 1088 -233.237098532 1088 -363 c 0
 1088 -577.104083825 916.141899259 -619 704 -619 c 1
 704 -459 l 1
 807.71180608 -459 896 -466.010423936 896 -363 c 0
 896 -292.383173413 787.101048974 -299 704 -299 c 1
 704 -11 l 1
 401.75969197 -4.47682788424 128 21.0051550572 128 320 c 1
 320 320 l 1
 320 111.725184561 549.384528851 128 768 128 c 0
 1007.69779654 128 1280 105.43733567 1280 340 c 0
 1280 544.673358066 1010.22362425 512 800 512 c 0
 428.814515607 512 128 486.284567104 128 860 c 0
 128 1176.3661629 499.110434299 1184 832 1184 c 0
 1166.42989669 1184 1472 1169.05111637 1472 848 c 1
 1280 848 l 1
 1280 1041.31379949 1037.55281622 1024 832 1024 c 0
 617.604464349 1024 320 1059.64044589 320 860 c 0
 320 617.345900258 559.824575029 672 800 672 c 0
 1142.69730403 672 1472 684.215227383 1472 344 c 256
 1472 7.43077006886 1168.12646681 -7.79879555417 832 -11 c 1
 832 -203 l 1
EndSplineSet
EndChar

StartChar: florin
Encoding: 321 402 307
Width: 1184
GlyphClass: 2
Flags: HW
HStem: -288 160<0 265.523> 960 128<128 320 512 960> 1408 160<566.477 960>
VStem: 320 192<-74.0625 960 1088 1354.06>
LayerCount: 2
Fore
SplineSet
0 -128 m 1
 236.110017098 -128 320 -110.385466622 320 128 c 2
 320 960 l 1
 128 960 l 1
 128 1088 l 1
 320 1088 l 1
 320 1152 l 2
 320 1491.5227984 491.144821583 1568 833 1568 c 2
 960 1568 l 1
 960 1408 l 1
 832 1408 l 2
 595.889982902 1408 512 1390.38546662 512 1152 c 2
 512 1088 l 1
 960 1088 l 1
 960 960 l 1
 512 960 l 1
 512 128 l 2
 512 -211.03785336 340.845802008 -288 -1 -288 c 1
 0 -128 l 1
EndSplineSet
EndChar

StartChar: uni0237
Encoding: 355 567 377
Width: 608
GlyphClass: 2
Flags: HW
HStem: -384 160<128 263.967>
LayerCount: 2
Fore
SplineSet
128 -384 m 1
 381.805918086 -384 480 -312.031797445 480 -64 c 2
 480 1088 l 1
 288 1088 l 1
 288 -64 l 2
 288 -187.418612073 251.424894931 -224 128 -224 c 1
 128 -384 l 1
EndSplineSet
EndChar

StartChar: circumflex
Encoding: 356 710 378
Width: 1088
GlyphClass: 2
Flags: HW
HStem: 1728 128<448 640>
DStem2: 128 1376 256 1280 0.5547 0.83205<0 523.637> 640 1856 544 1728 0.5547 -0.83205<53.2512 576.888>
LayerCount: 2
Fore
SplineSet
832 1280 m 1
 960 1376 l 1
 640 1856 l 1
 448 1856 l 1
 128 1376 l 1
 256 1280 l 1
 544 1728 l 1
 832 1280 l 1
EndSplineSet
EndChar

StartChar: caron
Encoding: 357 711 379
Width: 1088
GlyphClass: 2
Flags: HW
HStem: 1280 128<448 640>
DStem2: 256 1856 128 1760 0.5547 -0.83205<8.8752 532.512> 544 1408 640 1280 0.5547 0.83205<0 523.637>
LayerCount: 2
Fore
SplineSet
544 1408 m 1
 256 1856 l 1
 128 1760 l 1
 448 1280 l 1
 640 1280 l 1
 960 1760 l 1
 832 1856 l 1
 544 1408 l 1
EndSplineSet
EndChar

StartChar: breve
Encoding: 358 728 380
Width: 1280
GlyphClass: 2
Flags: HW
HStem: 1280 128<457.096 822.904>
VStem: 256 160<1447.46 1600> 864 160<1447.46 1600>
LayerCount: 2
Fore
SplineSet
640 1408 m 256
 482.028046541 1408 416 1438.67849312 416 1600 c 1
 256 1600 l 1
 256 1364.49896306 397.380625207 1280 640 1280 c 256
 882.671052855 1280 1024 1364.46952951 1024 1600 c 1
 864 1600 l 1
 864 1438.68670682 797.990179525 1408 640 1408 c 256
EndSplineSet
EndChar

StartChar: dotaccent
Encoding: 359 729 381
Width: 448
GlyphClass: 2
Flags: HW
HStem: 1344 192
VStem: 128 192
LayerCount: 2
Fore
SplineSet
320 1536 m 1
 128 1536 l 1
 128 1344 l 1
 320 1344 l 1
 320 1536 l 1
EndSplineSet
EndChar

StartChar: ring
Encoding: 360 730 382
Width: 1280
GlyphClass: 2
Flags: HW
HStem: 1280 128<498.284 781.716> 1792 128<498.284 781.716>
VStem: 288 160<1458.09 1741.91> 832 160<1458.09 1741.91>
LayerCount: 2
Fore
SplineSet
992 1600 m 256
 992 1807.60957502 853.313313348 1920 640 1920 c 256
 426.668069944 1920 288 1807.62346995 288 1600 c 256
 288 1392.39042498 426.686686652 1280 640 1280 c 256
 853.331930056 1280 992 1392.37653005 992 1600 c 256
832 1600 m 256
 832 1472.19073733 771.213607454 1408 640 1408 c 256
 508.781645094 1408 448 1472.17714357 448 1600 c 256
 448 1727.80926267 508.786392546 1792 640 1792 c 256
 771.218354906 1792 832 1727.82285643 832 1600 c 256
EndSplineSet
EndChar

StartChar: ogonek
Encoding: 361 731 383
Width: 640
GlyphClass: 2
Flags: HW
HStem: -512 160<368.996 512>
VStem: 128 192<-322.229 -117.51>
LayerCount: 2
Fore
SplineSet
320 -224 m 0
 320 -330.352421308 397.706320083 -352 512 -352 c 1
 512 -512 l 1
 315.608332413 -512 128 -451.550205934 128 -256 c 0
 128 -92.6288311914 274.361339784 4.61239238323 384 64 c 1
 512 64 l 1
 416.032092801 0.0213952004774 320 -83.8669748566 320 -224 c 0
EndSplineSet
EndChar

StartChar: tilde
Encoding: 362 732 384
Width: 1152
GlyphClass: 2
Flags: HW
HStem: 1344 160<612.379 768 796 827.484> 1440 161<324.254 356 384 540.977>
VStem: 128 192<1344 1438.02> 832 192<1506.54 1600>
DStem2: 603 1552.5 467.5 1425 0.929609 -0.368547<-160.816 169.953>
LayerCount: 2
Fore
SplineSet
320 1344 m 1
 320 1402.71309144 327.233451947 1440 384 1440 c 0
 529.662921069 1440 601.123433729 1344 768 1344 c 0
 918.559656736 1344 1024 1444.46923418 1024 1600 c 1
 832 1600 l 1
 832 1541.96488314 824.376792992 1504 768 1504 c 0
 621.912997524 1504 551.479202892 1601 384 1601 c 0
 230.170871364 1601 128 1502.92991455 128 1344 c 1
 320 1344 l 1
EndSplineSet
EndChar

StartChar: hungarumlaut
Encoding: 363 733 385
Width: 1512
GlyphClass: 2
Flags: HW
LayerCount: 2
Fore
SplineSet
832 1664 m 1
 704 1856 l 1
 128 1376 l 1
 192 1280 l 1
 832 1664 l 1
1385 1664 m 1
 1257 1856 l 1
 681 1376 l 1
 745 1280 l 1
 1385 1664 l 1
EndSplineSet
EndChar

StartChar: uni03A9
Encoding: -1 937 386
Width: 1472
GlyphClass: 2
Flags: HW
HStem: 0 224<424.702 576 896 1047.3> 0 160<192 384 1088 1280> 1183 159<432.061 1039.94>
VStem: 128 192<375.277 1052.58> 1152 192<375.277 1052.58>
LayerCount: 2
Fore
SplineSet
320 671 m 0
 320 427.073637262 348.371186727 224 576 224 c 1
 576 0 l 1
 192 0 l 1
 192 160 l 1
 384 160 l 1
 196.673286898 227.560453906 128 411.645790901 128 671 c 0
 128 1148.59359784 258.361223246 1342 736 1342 c 256
 1213.62616581 1342 1344 1148.6045447 1344 671 c 0
 1344 411.630363485 1275.33665316 227.564038846 1088 160 c 1
 1280 160 l 1
 1280 0 l 1
 896 0 l 1
 896 224 l 1
 1123.60959055 224 1152 427.112655886 1152 671 c 0
 1152 1051.22022065 1118.76330323 1183 736 1183 c 256
 353.256279286 1183 320 1051.2336959 320 671 c 0
EndSplineSet
EndChar

StartChar: pi
Encoding: 369 960 387
Width: 448
GlyphClass: 2
Flags: HW
HStem: 0 21G<128 320> 1344 192<128 320>
VStem: 128 192<0 1088 1344 1536>
LayerCount: 2
Fore
SplineSet
128 1088 m 1
 320 1088 l 1
 320 0 l 1
 128 0 l 1
 128 1088 l 1
320 1344 m 1
 128 1344 l 1
 128 1536 l 1
 320 1536 l 1
 320 1344 l 1
128 1088 m 1
 320 1088 l 1
 320 0 l 1
 128 0 l 1
 128 1088 l 1
320 1344 m 1
 128 1344 l 1
 128 1536 l 1
 320 1536 l 1
 320 1344 l 1
EndSplineSet
EndChar

StartChar: endash
Encoding: 370 8211 388
Width: 1088
GlyphClass: 2
Flags: HW
HStem: 512 160
LayerCount: 2
Fore
SplineSet
128 512 m 1
 960 512 l 1
 960 672 l 1
 128 672 l 1
 128 512 l 1
EndSplineSet
EndChar

StartChar: emdash
Encoding: 371 8212 389
Width: 1088
GlyphClass: 2
Flags: HW
HStem: 512 160
LayerCount: 2
Fore
SplineSet
0 512 m 1
 1088 512 l 1
 1088 672 l 1
 0 672 l 1
 0 512 l 1
EndSplineSet
EndChar

StartChar: quoteleft
Encoding: 372 8216 390
Width: 512
GlyphClass: 2
Flags: HW
HStem: 1152 384
LayerCount: 2
Fore
SplineSet
128 1152 m 1
 256 1152 l 1
 384 1536 l 1
 192 1536 l 1
 128 1152 l 1
EndSplineSet
EndChar

StartChar: quoteright
Encoding: 373 8217 391
Width: 512
GlyphClass: 2
Flags: HW
HStem: 1152 384
LayerCount: 2
Fore
SplineSet
128 1152 m 1
 256 1152 l 1
 384 1536 l 1
 192 1536 l 1
 128 1152 l 1
EndSplineSet
EndChar

StartChar: quotesinglbase
Encoding: 374 8218 392
Width: 448
GlyphClass: 2
Flags: HW
HStem: -256 384
LayerCount: 2
Fore
SplineSet
64 -256 m 1
 192 -256 l 1
 320 128 l 1
 128 128 l 1
 64 -256 l 1
EndSplineSet
EndChar

StartChar: quotedblleft
Encoding: 375 8220 393
Width: 768
GlyphClass: 2
Flags: HW
HStem: 1152 384
LayerCount: 2
Fore
SplineSet
384 1152 m 1
 512 1152 l 1
 640 1536 l 1
 448 1536 l 1
 384 1152 l 1
128 1152 m 1
 256 1152 l 1
 384 1536 l 1
 192 1536 l 1
 128 1152 l 1
EndSplineSet
EndChar

StartChar: quotedblright
Encoding: 376 8221 394
Width: 832
GlyphClass: 2
Flags: HW
HStem: 1152 384
LayerCount: 2
Fore
SplineSet
128 1152 m 1
 256 1152 l 1
 384 1536 l 1
 192 1536 l 1
 128 1152 l 1
448 1152 m 1
 576 1152 l 1
 704 1536 l 1
 512 1536 l 1
 448 1152 l 1
EndSplineSet
EndChar

StartChar: quotedblbase
Encoding: 377 8222 395
Width: 832
GlyphClass: 2
Flags: HW
HStem: -192 384
LayerCount: 2
Fore
SplineSet
128 -192 m 1
 256 -192 l 1
 384 192 l 1
 192 192 l 1
 128 -192 l 1
448 -192 m 1
 576 -192 l 1
 704 192 l 1
 512 192 l 1
 448 -192 l 1
EndSplineSet
EndChar

StartChar: dagger
Encoding: 378 8224 396
Width: 960
GlyphClass: 2
Flags: HW
LayerCount: 2
Fore
SplineSet
832 928 m 1
 832 1088 l 1
 576 1088 l 1
 576 1600 l 1
 384 1600 l 1
 384 1088 l 1
 128 1088 l 1
 128 928 l 1
 384 928 l 1
 384 -128 l 1
 576 -128 l 1
 576 928 l 1
 832 928 l 1
EndSplineSet
EndChar

StartChar: daggerdbl
Encoding: 379 8225 397
Width: 960
GlyphClass: 2
Flags: HW
LayerCount: 2
Fore
SplineSet
832 320 m 1
 832 480 l 1
 576 480 l 1
 576 928 l 1
 832 928 l 1
 832 1088 l 1
 576 1088 l 1
 576 1600 l 1
 384 1600 l 1
 384 1088 l 1
 128 1088 l 1
 128 928 l 1
 384 928 l 1
 384 480 l 1
 128 480 l 1
 128 320 l 1
 384 320 l 1
 384 -128 l 1
 576 -128 l 1
 576 320 l 1
 832 320 l 1
EndSplineSet
EndChar

StartChar: bullet
Encoding: 380 8226 398
Width: 1280
GlyphClass: 2
Flags: HW
HStem: 256 512<472.031 539 740.5 806.989>
VStem: 384 512<345.52 678.48>
LayerCount: 2
Fore
SplineSet
384 512 m 256
 384 341.012723287 471.72203092 256 640 256 c 256
 807.376105119 256 896 341.991835835 896 512 c 256
 896 682.01431113 807.382561108 768 640 768 c 256
 471.730780775 768 384 682.981693612 384 512 c 256
EndSplineSet
EndChar

StartChar: guilsinglleft
Encoding: 383 8249 401
Width: 896
GlyphClass: 2
Flags: HW
VStem: 128 128<512 704>
DStem2: 128 704 256 608 0.816968 0.576683<49.2103 665.877> 256 608 128 512 0.816968 -0.576683<0 616.667>
LayerCount: 2
Fore
SplineSet
256 608 m 1
 768 960 l 1
 672 1088 l 1
 128 704 l 1
 128 512 l 1
 672 128 l 1
 768 256 l 1
 256 608 l 1
EndSplineSet
EndChar

StartChar: guilsinglright
Encoding: 384 8250 402
Width: 896
GlyphClass: 2
Flags: HW
VStem: 640 128<512 704>
DStem2: 224 1088 128 960 0.816968 -0.576683<0 616.667> 128 256 224 128 0.816968 0.576683<4.61347 621.28>
LayerCount: 2
Fore
SplineSet
128 256 m 1
 224 128 l 1
 768 512 l 1
 768 704 l 1
 224 1088 l 1
 128 960 l 1
 640 608 l 1
 128 256 l 1
EndSplineSet
EndChar

StartChar: fraction
Encoding: 385 8260 403
Width: 1023
GlyphClass: 2
Flags: HW
DStem2: 64 0 256 0 0.416655 0.909065<79.9977 1689.65>
LayerCount: 2
Fore
SplineSet
64 0 m 1
 256 0 l 1
 960 1536 l 1
 768 1536 l 1
 64 0 l 1
EndSplineSet
EndChar

StartChar: uni2074
Encoding: 386 8308 404
Width: 1472
GlyphClass: 2
Flags: HW
DStem2: 128 384 320 352 0.737154 0.675725<119.91 1002.53>
LayerCount: 2
Fore
SplineSet
1344 192 m 1
 1344 352 l 1
 1152 352 l 1
 1152 1088 l 1
 896 1088 l 1
 128 384 l 1
 128 192 l 1
 960 192 l 1
 960 0 l 1
 1152 0 l 1
 1152 192 l 1
 1344 192 l 1
320 352 m 1
 960 960 l 1
 960 352 l 1
 320 352 l 1
EndSplineSet
EndChar

StartChar: Euro
Encoding: 387 8364 405
Width: 2042
GlyphClass: 2
Flags: HW
HStem: 0 158<457.518 608 1337.5 1588.57> 1409 160<465.808 712 1264 1589.62> 1409 25<1006 1011>
VStem: 129.5 188.5<310.944 488 1008 1277.28> 1721 192<277.375 588.5 1084 1277.71>
LayerCount: 2
Fore
SplineSet
656 1561 m 1
 242.603880309 1555.8963442 129 1347.16109133 129 927 c 128
 129 869 129 869 129 811 c 0
 129 226.163033586 210.522890972 0 816 0 c 0
 921.666666667 -0 1027.33333333 0 1133 0 c 0
 1238.39004068 0 1355.18375054 6 1459 6 c 1
 1850.50826158 28.1608449951 1913 262.940117281 1913 674.5 c 130
 1913 919 l 130
 1913 1420.61639715 1755.2010032 1540.10582334 1264 1569 c 1
 1220.33333333 1569 1176.66666667 1569 1133 1569 c 1
 986.144342469 1556.76202854 803.555037903 1561 656 1561 c 1
947.5 158 m 130
 922.926187587 158 888.028428867 155.742892783 871 160 c 1
 449.344299444 160 318 218.346751881 318 664 c 0
 318 778.666666667 318 893.333333333 318 1008 c 0
 318 1303.4423806 416.566707208 1401 712 1401 c 128
 744 1401 773.666666667 1401.66666667 801 1403 c 1
 854.323336337 1403 927.746815126 1409 981 1409 c 2
 1037 1409 l 2
 1400.43782048 1409 1721 1447.90520639 1721 1071 c 2
 1721 504 l 2
 1721 176.349590739 1531.96628115 160 1209 160 c 1
 1198.08608408 154.543042039 1162.41608399 158 1143.5 158 c 130
 947.5 158 l 130
1008 1440 m 0
 1010 1440 1011 1439 1011 1437 c 128
 1011 1435 1010 1434 1008 1434 c 0
 1006.66666667 1434 1006 1435 1006 1437 c 128
 1006 1439 1006.66666667 1440 1008 1440 c 0
EndSplineSet
EndChar

StartChar: trademark
Encoding: 388 8482 406
Width: 2752
GlyphClass: 2
Flags: HW
DStem2: 1536 1536 1408 1408 0.507822 -0.861462<45.2659 773.906> 1920 864 2017 704 0.519272 0.854609<0 712.828>
LayerCount: 2
Fore
SplineSet
128 1536 m 1
 128 1408 l 1
 512 1408 l 1
 512 704 l 1
 704 704 l 1
 704 1408 l 1
 1088 1408 l 1
 1088 1536 l 1
 128 1536 l 1
1823 704 m 1
 2017 704 l 1
 2432 1387 l 1
 2432 704 l 1
 2624 704 l 1
 2624 1536 l 1
 2318 1536 l 1
 1920 864 l 1
 1536 1536 l 1
 1216 1536 l 1
 1216 704 l 1
 1408 704 l 1
 1408 1408 l 1
 1823 704 l 1
EndSplineSet
EndChar

StartChar: Omega
Encoding: 368 8486 407
Width: 1472
GlyphClass: 2
Flags: HW
HStem: 0 224<424.702 576 896 1047.3> 1183 159<432.061 1039.94>
VStem: 128 192<375.277 671 886.5 1052.58> 1152 192<375.277 671 886.5 1052.58>
LayerCount: 2
Fore
SplineSet
128 671 m 0
 128 411.630363485 196.663346837 227.564038846 384 160 c 1
 192 160 l 1
 192 0 l 1
 576 0 l 1
 576 224 l 1
 348.390409449 224 320 427.112655886 320 671 c 0
 320 1051.22022065 353.23669677 1183 736 1183 c 256
 1118.74372071 1183 1152 1051.2336959 1152 671 c 0
 1152 427.073637262 1123.62881327 224 896 224 c 1
 896 0 l 1
 1280 0 l 1
 1280 160 l 1
 1088 160 l 1
 1275.3267131 227.560453906 1344 411.645790901 1344 671 c 0
 1344 1148.59359784 1213.63877675 1342 736 1342 c 256
 258.373834187 1342 128 1148.6045447 128 671 c 0
EndSplineSet
EndChar

StartChar: partialdiff
Encoding: 389 8706 408
Width: 1984
GlyphClass: 2
Flags: HW
HStem: -32 160<444.68 1516.35> 768 160<444.68 1544.79> 1408 160<502.747 1451>
VStem: 128 192<232.423 661.677> 192 160<1120 1304.92> 1664 192<260.53 689.582 832 1219.77>
LayerCount: 2
Fore
SplineSet
1152 928 m 2
 1368.547256 928 1539.27705259 907.153570873 1664 832 c 1
 1664 1357.12777602 1493.56890253 1408 960 1408 c 256
 647.907720269 1408 352 1427.3266425 352 1120 c 1
 192 1120 l 1
 192 1547.56322706 529.03225548 1568 960 1568 c 0
 1621.82219199 1568 1856 1437.48301935 1856 768 c 0
 1856 177.810644956 1755.27145307 -32 1152 -32 c 2
 831 -32 l 2
 405.955278679 -32 128 35.62336941 128 448 c 256
 128 860.354638381 405.982073609 928 831 928 c 2
 1152 928 l 2
1664 512 m 0
 1664 792.651760945 1439.12390574 768 1152 768 c 2
 831 768 l 2
 518.569220552 768 320 761.700938913 320 448 c 256
 320 133.468042372 518.106749663 128 831 128 c 2
 1152 128 l 2
 1501.9063514 128 1664 165.092258056 1664 512 c 0
EndSplineSet
EndChar

StartChar: uni2206
Encoding: 390 8710 409
Width: 1664
GlyphClass: 2
Flags: HW
HStem: -1 160<384 1280> 1408 128<704 960>
LayerCount: 2
Fore
SplineSet
128 -1 m 1
 704 1536 l 1
 960 1536 l 1
 1536 -1 l 1
 128 -1 l 1
1280 159 m 1
 832 1408 l 1
 384 159 l 1
 1280 159 l 1
EndSplineSet
EndChar

StartChar: product
Encoding: 391 8719 410
Width: 1792
GlyphClass: 2
Flags: HW
HStem: 0 21G<128 320 1472 1664> 1376 160<320 1472>
VStem: 128 192<0 1376> 1472 192<0 1376>
LayerCount: 2
Fore
SplineSet
1664 0 m 1
 1472 0 l 1
 1472 1376 l 1
 320 1376 l 1
 320 0 l 1
 128 0 l 1
 128 1536 l 1
 1664 1536 l 1
 1664 0 l 1
EndSplineSet
EndChar

StartChar: summation
Encoding: 392 8721 411
Width: 1664
GlyphClass: 2
Flags: HW
HStem: 0 160<320 1536> 1376 160<320 1536>
DStem2: 320 1376 128 1360 0.707107 -0.707107<0 690.136> 128 176 320 160 0.687745 0.725953<120.432 837.52>
LayerCount: 2
Fore
SplineSet
864 736 m 1
 320 160 l 1
 1536 160 l 1
 1536 0 l 1
 128 0 l 1
 128 176 l 1
 704 784 l 1
 128 1360 l 1
 128 1536 l 1
 1536 1536 l 1
 1536 1376 l 1
 320 1376 l 1
 864 832 l 1
 864 736 l 1
EndSplineSet
EndChar

StartChar: minus
Encoding: 65622 8722 412
Width: 1472
GlyphClass: 2
Flags: HW
HStem: 512 160
LayerCount: 2
Fore
SplineSet
128 512 m 1
 1344 512 l 1
 1344 672 l 1
 128 672 l 1
 128 512 l 1
EndSplineSet
EndChar

StartChar: radical
Encoding: 393 8730 413
Width: 1632
GlyphClass: 2
Flags: HW
HStem: 0 21G<628.571 903.917> 1516 20G<1272.73 1504>
DStem2: 352 896 128 896 0.496139 -0.868243<0 873.205>
LayerCount: 2
Fore
SplineSet
128 896 m 1
 352 896 l 1
 768 128 l 1
 1280 1536 l 1
 1504 1536 l 1
 896 0 l 1
 640 0 l 1
 128 896 l 1
EndSplineSet
EndChar

StartChar: infinity
Encoding: 394 8734 414
Width: 2496
GlyphClass: 2
Flags: HW
HStem: -32 160<459.925 792.133 1711.29 2036.08> 960 160<447.131 801.893 1708.9 2048.87>
VStem: 128 192<289.871 816.305> 2176 192<289.871 816.305>
DStem2: 1139 843.5 1048.5 686 0.59388 -0.804553<-215.177 197.178 428.966 832.249> 1156 535 1251 393 0.578805 0.815466<-390.94 -60.8097 183.568 561.123>
LayerCount: 2
Fore
SplineSet
2368 544 m 256
 2368 175.86425498 2212.93225156 -32 1854 -32 c 0
 1560.80649004 -32 1376.07382316 215.395171107 1251 393 c 1
 1125.0184275 215.143662357 936.017451957 -32 642 -32 c 0
 283.09517322 -32 128 175.882458686 128 544 c 256
 128 912.13574502 283.067748437 1120 642 1120 c 0
 954.804943972 1120 1125.50889414 875.317810054 1259 687 c 1
 1382.13382884 866.103751041 1560.52634959 1120 1854 1120 c 0
 2212.90482678 1120 2368 912.117541314 2368 544 c 256
320 544 m 0
 320 290.856271833 399.31571622 128 642 128 c 0
 880.368497735 128 1050.74845934 389.267097549 1156 535 c 1
 1049.44215286 694.836770715 894.443368136 960 642 960 c 0
 383.995198292 960 320 805.383958749 320 544 c 0
2176 544 m 0
 2176 805.38659188 2112.01332669 960 1854 960 c 0
 1622.25520513 960 1454.30856942 692.990511354 1355 548 c 1
 1455.76977701 403.760907416 1627.26508884 128 1854 128 c 0
 2096.65482508 128 2176 290.878442442 2176 544 c 0
EndSplineSet
EndChar

StartChar: integral
Encoding: 395 8747 415
Width: 1089
GlyphClass: 2
Flags: HW
HStem: -288 160<129 394.523> 1408 160<695.094 961>
VStem: 449 192<-74.0625 1354.06>
LayerCount: 2
Fore
SplineSet
129 -128 m 1
 365.110017098 -128 449 -110.385466622 449 128 c 2
 449 1152 l 2
 449 1490.61296394 619.542818979 1568 961 1568 c 1
 961 1408 l 1
 724.889982902 1408 641 1390.38546662 641 1152 c 2
 641 128 l 2
 641 -211.03785336 469.845802008 -288 128 -288 c 1
 129 -128 l 1
EndSplineSet
EndChar

StartChar: approxequal
Encoding: 396 8776 416
Width: 1152
GlyphClass: 2
Flags: HW
HStem: 447 160<611.023 827.484> 543 160<324.254 540.977> 832 160<611.023 827.484> 928 160<324.254 540.977>
VStem: 128 192<447 541.021 832 926.021> 832 192<609.54 703 994.54 1088>
DStem2: 603 1040 467.5 913 0.932917 -0.360091<-162.667 169.904> 603 655 467.5 528 0.932917 -0.360091<-162.667 169.904>
LayerCount: 2
Fore
SplineSet
768 447 m 0
 601.128743686 447 529.657228688 543 384 543 c 0
 327.236896223 543 320 505.709907725 320 447 c 1
 128 447 l 1
 128 607.059104429 230.145563858 703 384 703 c 0
 550.871256314 703 622.342771312 607 768 607 c 0
 824.37388481 607 832 644.968231388 832 703 c 1
 1024 703 l 1
 1024 546.498567906 918.372896722 447 768 447 c 0
768 832 m 0
 601.128743686 832 529.657228688 928 384 928 c 0
 327.236896223 928 320 890.709907725 320 832 c 1
 128 832 l 1
 128 992.059104429 230.145563858 1088 384 1088 c 0
 550.871256314 1088 622.342771312 992 768 992 c 0
 824.37388481 992 832 1029.96823139 832 1088 c 1
 1024 1088 l 1
 1024 931.498567906 918.372896722 832 768 832 c 0
EndSplineSet
EndChar

StartChar: notequal
Encoding: 397 8800 417
Width: 1472
GlyphClass: 2
Flags: HW
DStem2: 384 -64 544 -128 0.368048 0.929807<0 1651.34>
LayerCount: 2
Fore
SplineSet
384 -64 m 1
 544 -128 l 1
 1152 1408 l 1
 992 1472 l 1
 384 -64 l 1
128 864 m 1
 1344 864 l 1
 1344 1024 l 1
 128 1024 l 1
 128 864 l 1
128 320 m 1
 1344 320 l 1
 1344 480 l 1
 128 480 l 1
 128 320 l 1
EndSplineSet
EndChar

StartChar: lessequal
Encoding: 398 8804 418
Width: 1152
GlyphClass: 2
Flags: HW
HStem: -32 160<128 1022>
VStem: 128 144<736 928>
LayerCount: 2
Fore
SplineSet
1024 1472 m 1
 1024 1216 l 1
 272 832 l 1
 1024 448 l 1
 1024 192 l 1
 128 736 l 1
 128 928 l 1
 1024 1472 l 1
128 128 m 1
 1022 128 l 1
 1022 -32 l 1
 128 -32 l 1
 128 128 l 1
EndSplineSet
EndChar

StartChar: greaterequal
Encoding: 399 8805 419
Width: 1152
GlyphClass: 2
Flags: HW
HStem: -32 160<128 1022>
VStem: 880 144<736 928>
LayerCount: 2
Fore
SplineSet
1024 928 m 1
 1024 736 l 1
 128 192 l 1
 128 448 l 1
 880 832 l 1
 128 1216 l 1
 128 1472 l 1
 1024 928 l 1
128 128 m 1
 1022 128 l 1
 1022 -32 l 1
 128 -32 l 1
 128 128 l 1
EndSplineSet
EndChar

StartChar: lozenge
Encoding: 400 9674 420
Width: 1280
GlyphClass: 2
Flags: HW
HStem: 0 256<448 832> 1280 256<448 832>
VStem: 128 224<656 880> 928 224<656 880>
DStem2: 128 768 352 768 0.503871 0.863779<112.867 700.237> 352 768 128 768 0.503871 -0.863779<0 587.37> 704 1536 640 1280 0.503871 -0.863779<188.88 776.249> 640 256 704 0 0.503871 0.863779<0 587.37>
LayerCount: 2
Fore
SplineSet
1152 768 m 1
 704 1536 l 1
 576 1536 l 1
 128 768 l 1
 576 0 l 1
 704 0 l 1
 1152 768 l 1
352 768 m 1
 640 1280 l 1
 928 768 l 1
 640 256 l 1
 352 768 l 1
EndSplineSet
EndChar

StartChar: doublegrave
Encoding: 65623 -1 424
Width: 1512
GlyphClass: 2
Flags: HW
LayerCount: 2
Fore
SplineSet
1321 1280 m 1
 1385 1376 l 1
 809 1856 l 1
 681 1664 l 1
 1321 1280 l 1
768 1280 m 1
 832 1376 l 1
 256 1856 l 1
 128 1664 l 1
 768 1280 l 1
EndSplineSet
EndChar
